<?xml version="1.0" encoding="us-ascii" standalone="no"?><svg xmlns="http://www.w3.org/2000/svg" xmlns:xlink="http://www.w3.org/1999/xlink" contentStyleType="text/css" height="842px" preserveAspectRatio="none" style="width:1438px;height:842px;background:#FFFFFF;" version="1.1" viewBox="0 0 1438 842" width="1438px" zoomAndPan="magnify"><defs/><g><g id="elem_Versioning"><path d="M526.5,43.5 L526.5,83.7656 L678.5,83.7656 L678.5,53.5 L668.5,43.5 L526.5,43.5 " fill="#FEFFDD" style="stroke:#181818;stroke-width:0.5;"/><path d="M668.5,43.5 L668.5,53.5 L678.5,53.5 L668.5,43.5 " fill="#FEFFDD" style="stroke:#181818;stroke-width:1.0;"/><text fill="#000000" font-family="sans-serif" font-size="13" lengthAdjust="spacing" textLength="131" x="532.5" y="60.5669">Diagramversion: 1.x</text><text fill="#000000" font-family="sans-serif" font-size="13" lengthAdjust="spacing" textLength="114" x="532.5" y="75.6997">Date: 2023-05-09</text></g><!--class Client--><g id="elem_Client"><rect codeLine="6" fill="#F1F1F1" height="145.7813" id="Client" rx="2.5" ry="2.5" style="stroke:#181818;stroke-width:0.5;" width="390" x="59.5" y="386"/><ellipse cx="228.75" cy="402" fill="#ADD1B2" rx="11" ry="11" style="stroke:#181818;stroke-width:1.0;"/><path d="M231.0938,397.6719 C230.1563,397.2344 229.5625,397.0938 228.6875,397.0938 C226.0625,397.0938 224.0625,399.1719 224.0625,401.8906 L224.0625,403.0156 C224.0625,405.5938 226.1719,407.4844 229.0625,407.4844 C230.2813,407.4844 231.4375,407.1875 232.1875,406.6406 C232.7656,406.2344 233.0938,405.7813 233.0938,405.3906 C233.0938,404.9375 232.7031,404.5469 232.2344,404.5469 C232.0156,404.5469 231.8125,404.625 231.625,404.8125 C231.1719,405.2969 231.1719,405.2969 230.9844,405.3906 C230.5625,405.6563 229.875,405.7813 229.1094,405.7813 C227.0625,405.7813 225.7656,404.6875 225.7656,402.9844 L225.7656,401.8906 C225.7656,400.1094 227.0156,398.7969 228.75,398.7969 C229.3281,398.7969 229.9375,398.9531 230.4063,399.2031 C230.8906,399.4844 231.0625,399.7031 231.1563,400.1094 C231.2188,400.5156 231.25,400.6406 231.3906,400.7656 C231.5313,400.9063 231.7656,401.0156 231.9844,401.0156 C232.25,401.0156 232.5156,400.875 232.6875,400.6563 C232.7969,400.5 232.8281,400.3125 232.8281,399.8906 L232.8281,398.4688 C232.8281,398.0313 232.8125,397.9063 232.7188,397.75 C232.5625,397.4844 232.2813,397.3438 231.9844,397.3438 C231.6875,397.3438 231.4844,397.4375 231.2656,397.75 L231.0938,397.6719 Z " fill="#000000"/><text fill="#000000" font-family="sans-serif" font-size="14" lengthAdjust="spacing" textLength="43" x="249.25" y="406.8467">Client</text><line style="stroke:#181818;stroke-width:0.5;" x1="60.5" x2="448.5" y1="418" y2="418"/><ellipse cx="70.5" cy="431.6484" fill="none" rx="3" ry="3" style="stroke:#038048;stroke-width:1.0;"/><text fill="#000000" font-family="sans-serif" font-size="14" lengthAdjust="spacing" text-decoration="underline" textLength="133" x="79.5" y="434.9951">clientID: LDT_UUID</text><line style="stroke:#181818;stroke-width:0.5;" x1="60.5" x2="448.5" y1="442.2969" y2="442.2969"/><ellipse cx="70.5" cy="455.9453" fill="none" rx="3" ry="3" style="stroke:#038048;stroke-width:1.0;"/><text fill="#000000" font-family="sans-serif" font-size="14" lengthAdjust="spacing" textLength="266" x="79.5" y="459.292">bsn: LDT_BurgerServicenummer {id}</text><text fill="#000000" font-family="sans-serif" font-size="14" lengthAdjust="spacing" textLength="220" x="79.5" y="475.5889">leefeenheid: LDT_Leefeenheid</text><text fill="#000000" font-family="sans-serif" font-size="14" lengthAdjust="spacing" textLength="204" x="79.5" y="491.8857">huisarts: LDT_AgbCode[0..1]</text><text fill="#000000" font-family="sans-serif" font-size="14" lengthAdjust="spacing" textLength="364" x="79.5" y="508.1826">communicatieVorm: LDT_Communicatievorm[0..1]</text><text fill="#000000" font-family="sans-serif" font-size="14" lengthAdjust="spacing" textLength="138" x="79.5" y="524.4795">taal: LDT_Taal[0..1]</text></g><!--class Bemiddeling--><g id="elem_Bemiddeling"><rect codeLine="16" fill="#F1F1F1" height="145.7813" id="Bemiddeling" rx="2.5" ry="2.5" style="stroke:#181818;stroke-width:0.5;" width="445" x="463" y="180"/><ellipse cx="636.25" cy="196" fill="#ADD1B2" rx="11" ry="11" style="stroke:#181818;stroke-width:1.0;"/><path d="M638.5938,191.6719 C637.6563,191.2344 637.0625,191.0938 636.1875,191.0938 C633.5625,191.0938 631.5625,193.1719 631.5625,195.8906 L631.5625,197.0156 C631.5625,199.5938 633.6719,201.4844 636.5625,201.4844 C637.7813,201.4844 638.9375,201.1875 639.6875,200.6406 C640.2656,200.2344 640.5938,199.7813 640.5938,199.3906 C640.5938,198.9375 640.2031,198.5469 639.7344,198.5469 C639.5156,198.5469 639.3125,198.625 639.125,198.8125 C638.6719,199.2969 638.6719,199.2969 638.4844,199.3906 C638.0625,199.6563 637.375,199.7813 636.6094,199.7813 C634.5625,199.7813 633.2656,198.6875 633.2656,196.9844 L633.2656,195.8906 C633.2656,194.1094 634.5156,192.7969 636.25,192.7969 C636.8281,192.7969 637.4375,192.9531 637.9063,193.2031 C638.3906,193.4844 638.5625,193.7031 638.6563,194.1094 C638.7188,194.5156 638.75,194.6406 638.8906,194.7656 C639.0313,194.9063 639.2656,195.0156 639.4844,195.0156 C639.75,195.0156 640.0156,194.875 640.1875,194.6563 C640.2969,194.5 640.3281,194.3125 640.3281,193.8906 L640.3281,192.4688 C640.3281,192.0313 640.3125,191.9063 640.2188,191.75 C640.0625,191.4844 639.7813,191.3438 639.4844,191.3438 C639.1875,191.3438 638.9844,191.4375 638.7656,191.75 L638.5938,191.6719 Z " fill="#000000"/><text fill="#000000" font-family="sans-serif" font-size="14" lengthAdjust="spacing" textLength="90" x="656.75" y="200.8467">Bemiddeling</text><line style="stroke:#181818;stroke-width:0.5;" x1="464" x2="907" y1="212" y2="212"/><ellipse cx="474" cy="225.6484" fill="none" rx="3" ry="3" style="stroke:#038048;stroke-width:1.0;"/><text fill="#000000" font-family="sans-serif" font-size="14" lengthAdjust="spacing" text-decoration="underline" textLength="182" x="483" y="228.9951">bemiddelingID: LDT_UUID</text><line style="stroke:#181818;stroke-width:0.5;" x1="464" x2="907" y1="236.2969" y2="236.2969"/><ellipse cx="474" cy="249.9453" fill="none" rx="3" ry="3" style="stroke:#038048;stroke-width:1.0;"/><text fill="#000000" font-family="sans-serif" font-size="14" lengthAdjust="spacing" textLength="212" x="483" y="253.292">wlzIndicatieID: LDT_UUID {id}</text><text fill="#000000" font-family="sans-serif" font-size="14" lengthAdjust="spacing" textLength="262" x="483" y="269.5889">besluitnummer: LDT_Besluitnummer</text><ellipse cx="474" cy="282.5391" fill="none" rx="3" ry="3" style="stroke:#038048;stroke-width:1.0;"/><text fill="#000000" font-family="sans-serif" font-size="14" lengthAdjust="spacing" textLength="419" x="483" y="285.8857">verantwoordelijkZorgkantoor: LDT_ZorgkantoorCode {id}</text><ellipse cx="474" cy="298.8359" fill="none" rx="3" ry="3" style="stroke:#038048;stroke-width:1.0;"/><text fill="#000000" font-family="sans-serif" font-size="14" lengthAdjust="spacing" textLength="380" x="483" y="302.1826">verantwoordelijkheidIngangsdatum: LDT_Datum {id}</text><text fill="#000000" font-family="sans-serif" font-size="14" lengthAdjust="spacing" textLength="363" x="483" y="318.4795">verantwoordelijkheidEinddatum: LDT_Datum [0..1]</text></g><!--class BemiddeldeInstelling--><g id="elem_BemiddeldeInstelling"><rect codeLine="26" fill="#F1F1F1" height="96.8906" id="BemiddeldeInstelling" rx="2.5" ry="2.5" style="stroke:#181818;stroke-width:0.5;" width="402" x="484.5" y="410.5"/><ellipse cx="605.25" cy="426.5" fill="#ADD1B2" rx="11" ry="11" style="stroke:#181818;stroke-width:1.0;"/><path d="M607.5938,422.1719 C606.6563,421.7344 606.0625,421.5938 605.1875,421.5938 C602.5625,421.5938 600.5625,423.6719 600.5625,426.3906 L600.5625,427.5156 C600.5625,430.0938 602.6719,431.9844 605.5625,431.9844 C606.7813,431.9844 607.9375,431.6875 608.6875,431.1406 C609.2656,430.7344 609.5938,430.2813 609.5938,429.8906 C609.5938,429.4375 609.2031,429.0469 608.7344,429.0469 C608.5156,429.0469 608.3125,429.125 608.125,429.3125 C607.6719,429.7969 607.6719,429.7969 607.4844,429.8906 C607.0625,430.1563 606.375,430.2813 605.6094,430.2813 C603.5625,430.2813 602.2656,429.1875 602.2656,427.4844 L602.2656,426.3906 C602.2656,424.6094 603.5156,423.2969 605.25,423.2969 C605.8281,423.2969 606.4375,423.4531 606.9063,423.7031 C607.3906,423.9844 607.5625,424.2031 607.6563,424.6094 C607.7188,425.0156 607.75,425.1406 607.8906,425.2656 C608.0313,425.4063 608.2656,425.5156 608.4844,425.5156 C608.75,425.5156 609.0156,425.375 609.1875,425.1563 C609.2969,425 609.3281,424.8125 609.3281,424.3906 L609.3281,422.9688 C609.3281,422.5313 609.3125,422.4063 609.2188,422.25 C609.0625,421.9844 608.7813,421.8438 608.4844,421.8438 C608.1875,421.8438 607.9844,421.9375 607.7656,422.25 L607.5938,422.1719 Z " fill="#000000"/><text fill="#000000" font-family="sans-serif" font-size="14" lengthAdjust="spacing" textLength="152" x="625.75" y="431.3467">BemiddeldeInstelling</text><line style="stroke:#181818;stroke-width:0.5;" x1="485.5" x2="885.5" y1="442.5" y2="442.5"/><ellipse cx="495.5" cy="456.1484" fill="none" rx="3" ry="3" style="stroke:#038048;stroke-width:1.0;"/><text fill="#000000" font-family="sans-serif" font-size="14" lengthAdjust="spacing" text-decoration="underline" textLength="244" x="504.5" y="459.4951">bemiddeldeInstellingID: LDT_UUID</text><line style="stroke:#181818;stroke-width:0.5;" x1="485.5" x2="885.5" y1="466.7969" y2="466.7969"/><ellipse cx="495.5" cy="480.4453" fill="none" rx="3" ry="3" style="stroke:#038048;stroke-width:1.0;"/><text fill="#000000" font-family="sans-serif" font-size="14" lengthAdjust="spacing" textLength="211" x="504.5" y="483.792">instelling: LDT_AgbCode {id}</text><ellipse cx="495.5" cy="496.7422" fill="none" rx="3" ry="3" style="stroke:#038048;stroke-width:1.0;"/><text fill="#000000" font-family="sans-serif" font-size="14" lengthAdjust="spacing" textLength="376" x="504.5" y="500.0889">uitvoerendZorgkantoor: LDT_ZorgkantoorCode {id}</text></g><!--class ZorgInNatura--><g id="elem_ZorgInNatura"><rect codeLine="33" fill="#F1F1F1" height="243.5625" id="ZorgInNatura" rx="2.5" ry="2.5" style="stroke:#181818;stroke-width:0.5;" width="358" x="870.5" y="592"/><ellipse cx="998.25" cy="608" fill="#ADD1B2" rx="11" ry="11" style="stroke:#181818;stroke-width:1.0;"/><path d="M1000.5938,603.6719 C999.6563,603.2344 999.0625,603.0938 998.1875,603.0938 C995.5625,603.0938 993.5625,605.1719 993.5625,607.8906 L993.5625,609.0156 C993.5625,611.5938 995.6719,613.4844 998.5625,613.4844 C999.7813,613.4844 1000.9375,613.1875 1001.6875,612.6406 C1002.2656,612.2344 1002.5938,611.7813 1002.5938,611.3906 C1002.5938,610.9375 1002.2031,610.5469 1001.7344,610.5469 C1001.5156,610.5469 1001.3125,610.625 1001.125,610.8125 C1000.6719,611.2969 1000.6719,611.2969 1000.4844,611.3906 C1000.0625,611.6563 999.375,611.7813 998.6094,611.7813 C996.5625,611.7813 995.2656,610.6875 995.2656,608.9844 L995.2656,607.8906 C995.2656,606.1094 996.5156,604.7969 998.25,604.7969 C998.8281,604.7969 999.4375,604.9531 999.9063,605.2031 C1000.3906,605.4844 1000.5625,605.7031 1000.6563,606.1094 C1000.7188,606.5156 1000.75,606.6406 1000.8906,606.7656 C1001.0313,606.9063 1001.2656,607.0156 1001.4844,607.0156 C1001.75,607.0156 1002.0156,606.875 1002.1875,606.6563 C1002.2969,606.5 1002.3281,606.3125 1002.3281,605.8906 L1002.3281,604.4688 C1002.3281,604.0313 1002.3125,603.9063 1002.2188,603.75 C1002.0625,603.4844 1001.7813,603.3438 1001.4844,603.3438 C1001.1875,603.3438 1000.9844,603.4375 1000.7656,603.75 L1000.5938,603.6719 Z " fill="#000000"/><text fill="#000000" font-family="sans-serif" font-size="14" lengthAdjust="spacing" textLength="94" x="1018.75" y="612.8467">ZorgInNatura</text><line style="stroke:#181818;stroke-width:0.5;" x1="871.5" x2="1227.5" y1="624" y2="624"/><ellipse cx="881.5" cy="637.6484" fill="none" rx="3" ry="3" style="stroke:#038048;stroke-width:1.0;"/><text fill="#000000" font-family="sans-serif" font-size="14" lengthAdjust="spacing" text-decoration="underline" textLength="184" x="890.5" y="640.9951">zorgInNaturaID: LDT_UUID</text><line style="stroke:#181818;stroke-width:0.5;" x1="871.5" x2="1227.5" y1="648.2969" y2="648.2969"/><ellipse cx="881.5" cy="661.9453" fill="none" rx="3" ry="3" style="stroke:#038048;stroke-width:1.0;"/><text fill="#000000" font-family="sans-serif" font-size="14" lengthAdjust="spacing" textLength="287" x="890.5" y="665.292">leveringsvorm: LDT_Leveringsvorm {id}</text><ellipse cx="881.5" cy="678.2422" fill="none" rx="3" ry="3" style="stroke:#038048;stroke-width:1.0;"/><text fill="#000000" font-family="sans-serif" font-size="14" lengthAdjust="spacing" textLength="207" x="890.5" y="681.5889">zzpCode: LDT_ZzpCode {id}</text><ellipse cx="881.5" cy="694.5391" fill="none" rx="3" ry="3" style="stroke:#038048;stroke-width:1.0;"/><text fill="#000000" font-family="sans-serif" font-size="14" lengthAdjust="spacing" textLength="302" x="890.5" y="697.8857">toewijzingIngangsdatum: LDT_Datum {id}</text><text fill="#000000" font-family="sans-serif" font-size="14" lengthAdjust="spacing" textLength="249" x="890.5" y="714.1826">vaststellingmoment: LDT_Moment</text><text fill="#000000" font-family="sans-serif" font-size="14" lengthAdjust="spacing" textLength="281" x="890.5" y="730.4795">toewijzingEinddatum: LDT_Datum[0..1]</text><text fill="#000000" font-family="sans-serif" font-size="14" lengthAdjust="spacing" textLength="211" x="890.5" y="746.7764">percentage: LDT_Percentage</text><text fill="#000000" font-family="sans-serif" font-size="14" lengthAdjust="spacing" textLength="181" x="890.5" y="763.0732">opname: LDT_JaNee[0..1]</text><text fill="#000000" font-family="sans-serif" font-size="14" lengthAdjust="spacing" textLength="320" x="890.5" y="779.3701">redenIntrekking: LDT_RedenIntrekking[0..1]</text><text fill="#000000" font-family="sans-serif" font-size="14" lengthAdjust="spacing" textLength="202" x="890.5" y="795.667">etmalen: LDT_Etmalen[0..1]</text><text fill="#000000" font-family="sans-serif" font-size="14" lengthAdjust="spacing" textLength="332" x="890.5" y="811.9639">instellngBestemming: LDT_iWlzAgbCode[0..1]</text><text fill="#000000" font-family="sans-serif" font-size="14" lengthAdjust="spacing" textLength="274" x="890.5" y="828.2607">soortToewijzing: LDT_SoortToewijzing</text></g><!--class Pgb--><g id="elem_Pgb"><rect codeLine="49" fill="#F1F1F1" height="145.7813" id="Pgb" rx="2.5" ry="2.5" style="stroke:#181818;stroke-width:0.5;" width="328" x="921.5" y="386"/><ellipse cx="1067.25" cy="402" fill="#ADD1B2" rx="11" ry="11" style="stroke:#181818;stroke-width:1.0;"/><path d="M1069.5938,397.6719 C1068.6563,397.2344 1068.0625,397.0938 1067.1875,397.0938 C1064.5625,397.0938 1062.5625,399.1719 1062.5625,401.8906 L1062.5625,403.0156 C1062.5625,405.5938 1064.6719,407.4844 1067.5625,407.4844 C1068.7813,407.4844 1069.9375,407.1875 1070.6875,406.6406 C1071.2656,406.2344 1071.5938,405.7813 1071.5938,405.3906 C1071.5938,404.9375 1071.2031,404.5469 1070.7344,404.5469 C1070.5156,404.5469 1070.3125,404.625 1070.125,404.8125 C1069.6719,405.2969 1069.6719,405.2969 1069.4844,405.3906 C1069.0625,405.6563 1068.375,405.7813 1067.6094,405.7813 C1065.5625,405.7813 1064.2656,404.6875 1064.2656,402.9844 L1064.2656,401.8906 C1064.2656,400.1094 1065.5156,398.7969 1067.25,398.7969 C1067.8281,398.7969 1068.4375,398.9531 1068.9063,399.2031 C1069.3906,399.4844 1069.5625,399.7031 1069.6563,400.1094 C1069.7188,400.5156 1069.75,400.6406 1069.8906,400.7656 C1070.0313,400.9063 1070.2656,401.0156 1070.4844,401.0156 C1070.75,401.0156 1071.0156,400.875 1071.1875,400.6563 C1071.2969,400.5 1071.3281,400.3125 1071.3281,399.8906 L1071.3281,398.4688 C1071.3281,398.0313 1071.3125,397.9063 1071.2188,397.75 C1071.0625,397.4844 1070.7813,397.3438 1070.4844,397.3438 C1070.1875,397.3438 1069.9844,397.4375 1069.7656,397.75 L1069.5938,397.6719 Z " fill="#000000"/><text fill="#000000" font-family="sans-serif" font-size="14" lengthAdjust="spacing" textLength="28" x="1087.75" y="406.8467">Pgb</text><line style="stroke:#181818;stroke-width:0.5;" x1="922.5" x2="1248.5" y1="418" y2="418"/><ellipse cx="932.5" cy="431.6484" fill="none" rx="3" ry="3" style="stroke:#038048;stroke-width:1.0;"/><text fill="#000000" font-family="sans-serif" font-size="14" lengthAdjust="spacing" text-decoration="underline" textLength="121" x="941.5" y="434.9951">pgbID: LDT_UUID</text><line style="stroke:#181818;stroke-width:0.5;" x1="922.5" x2="1248.5" y1="442.2969" y2="442.2969"/><ellipse cx="932.5" cy="455.9453" fill="none" rx="3" ry="3" style="stroke:#038048;stroke-width:1.0;"/><text fill="#000000" font-family="sans-serif" font-size="14" lengthAdjust="spacing" textLength="207" x="941.5" y="459.292">zzpCode: LDT_ZzpCode {id}</text><ellipse cx="932.5" cy="472.2422" fill="none" rx="3" ry="3" style="stroke:#038048;stroke-width:1.0;"/><text fill="#000000" font-family="sans-serif" font-size="14" lengthAdjust="spacing" textLength="302" x="941.5" y="475.5889">toewijzingIngangsdatum: LDT_Datum {id}</text><text fill="#000000" font-family="sans-serif" font-size="14" lengthAdjust="spacing" textLength="249" x="941.5" y="491.8857">vaststellingmoment: LDT_Moment</text><text fill="#000000" font-family="sans-serif" font-size="14" lengthAdjust="spacing" textLength="281" x="941.5" y="508.1826">toewijzingEinddatum: LDT_Datum[0..1]</text><text fill="#000000" font-family="sans-serif" font-size="14" lengthAdjust="spacing" textLength="211" x="941.5" y="524.4795">percentage: LDT_Percentage</text></g><!--class CoordinatorZorgThuis--><g id="elem_CoordinatorZorgThuis"><rect codeLine="59" fill="#F1F1F1" height="113.1875" id="CoordinatorZorgThuis" rx="2.5" ry="2.5" style="stroke:#181818;stroke-width:0.5;" width="273" x="7" y="657.5"/><ellipse cx="60.75" cy="673.5" fill="#ADD1B2" rx="11" ry="11" style="stroke:#181818;stroke-width:1.0;"/><path d="M63.0938,669.1719 C62.1563,668.7344 61.5625,668.5938 60.6875,668.5938 C58.0625,668.5938 56.0625,670.6719 56.0625,673.3906 L56.0625,674.5156 C56.0625,677.0938 58.1719,678.9844 61.0625,678.9844 C62.2813,678.9844 63.4375,678.6875 64.1875,678.1406 C64.7656,677.7344 65.0938,677.2813 65.0938,676.8906 C65.0938,676.4375 64.7031,676.0469 64.2344,676.0469 C64.0156,676.0469 63.8125,676.125 63.625,676.3125 C63.1719,676.7969 63.1719,676.7969 62.9844,676.8906 C62.5625,677.1563 61.875,677.2813 61.1094,677.2813 C59.0625,677.2813 57.7656,676.1875 57.7656,674.4844 L57.7656,673.3906 C57.7656,671.6094 59.0156,670.2969 60.75,670.2969 C61.3281,670.2969 61.9375,670.4531 62.4063,670.7031 C62.8906,670.9844 63.0625,671.2031 63.1563,671.6094 C63.2188,672.0156 63.25,672.1406 63.3906,672.2656 C63.5313,672.4063 63.7656,672.5156 63.9844,672.5156 C64.25,672.5156 64.5156,672.375 64.6875,672.1563 C64.7969,672 64.8281,671.8125 64.8281,671.3906 L64.8281,669.9688 C64.8281,669.5313 64.8125,669.4063 64.7188,669.25 C64.5625,668.9844 64.2813,668.8438 63.9844,668.8438 C63.6875,668.8438 63.4844,668.9375 63.2656,669.25 L63.0938,669.1719 Z " fill="#000000"/><text fill="#000000" font-family="sans-serif" font-size="14" lengthAdjust="spacing" textLength="157" x="81.25" y="678.3467">CoordinatorZorgThuis</text><line style="stroke:#181818;stroke-width:0.5;" x1="8" x2="279" y1="689.5" y2="689.5"/><ellipse cx="18" cy="703.1484" fill="none" rx="3" ry="3" style="stroke:#038048;stroke-width:1.0;"/><text fill="#000000" font-family="sans-serif" font-size="14" lengthAdjust="spacing" text-decoration="underline" textLength="247" x="27" y="706.4951">coordinatorZorgThuisID: LDT_UUID</text><line style="stroke:#181818;stroke-width:0.5;" x1="8" x2="279" y1="713.7969" y2="713.7969"/><ellipse cx="18" cy="727.4453" fill="none" rx="3" ry="3" style="stroke:#038048;stroke-width:1.0;"/><text fill="#000000" font-family="sans-serif" font-size="14" lengthAdjust="spacing" textLength="241" x="27" y="730.792">instelling: LDT_iWlzAgbCode {id}</text><ellipse cx="18" cy="743.7422" fill="none" rx="3" ry="3" style="stroke:#038048;stroke-width:1.0;"/><text fill="#000000" font-family="sans-serif" font-size="14" lengthAdjust="spacing" textLength="228" x="27" y="747.0889">ingangsdatum: LDT_Datum {id}</text><text fill="#000000" font-family="sans-serif" font-size="14" lengthAdjust="spacing" textLength="207" x="27" y="763.3857">einddatum: LDT_Datum[0..1]</text></g><!--class Dossierhouder--><g id="elem_Dossierhouder"><rect codeLine="67" fill="#F1F1F1" height="113.1875" id="Dossierhouder" rx="2.5" ry="2.5" style="stroke:#181818;stroke-width:0.5;" width="267" x="315" y="657.5"/><ellipse cx="392.75" cy="673.5" fill="#ADD1B2" rx="11" ry="11" style="stroke:#181818;stroke-width:1.0;"/><path d="M395.0938,669.1719 C394.1563,668.7344 393.5625,668.5938 392.6875,668.5938 C390.0625,668.5938 388.0625,670.6719 388.0625,673.3906 L388.0625,674.5156 C388.0625,677.0938 390.1719,678.9844 393.0625,678.9844 C394.2813,678.9844 395.4375,678.6875 396.1875,678.1406 C396.7656,677.7344 397.0938,677.2813 397.0938,676.8906 C397.0938,676.4375 396.7031,676.0469 396.2344,676.0469 C396.0156,676.0469 395.8125,676.125 395.625,676.3125 C395.1719,676.7969 395.1719,676.7969 394.9844,676.8906 C394.5625,677.1563 393.875,677.2813 393.1094,677.2813 C391.0625,677.2813 389.7656,676.1875 389.7656,674.4844 L389.7656,673.3906 C389.7656,671.6094 391.0156,670.2969 392.75,670.2969 C393.3281,670.2969 393.9375,670.4531 394.4063,670.7031 C394.8906,670.9844 395.0625,671.2031 395.1563,671.6094 C395.2188,672.0156 395.25,672.1406 395.3906,672.2656 C395.5313,672.4063 395.7656,672.5156 395.9844,672.5156 C396.25,672.5156 396.5156,672.375 396.6875,672.1563 C396.7969,672 396.8281,671.8125 396.8281,671.3906 L396.8281,669.9688 C396.8281,669.5313 396.8125,669.4063 396.7188,669.25 C396.5625,668.9844 396.2813,668.8438 395.9844,668.8438 C395.6875,668.8438 395.4844,668.9375 395.2656,669.25 L395.0938,669.1719 Z " fill="#000000"/><text fill="#000000" font-family="sans-serif" font-size="14" lengthAdjust="spacing" textLength="103" x="413.25" y="678.3467">Dossierhouder</text><line style="stroke:#181818;stroke-width:0.5;" x1="316" x2="581" y1="689.5" y2="689.5"/><ellipse cx="326" cy="703.1484" fill="none" rx="3" ry="3" style="stroke:#038048;stroke-width:1.0;"/><text fill="#000000" font-family="sans-serif" font-size="14" lengthAdjust="spacing" text-decoration="underline" textLength="193" x="335" y="706.4951">dossierhouderID: LDT_UUID</text><line style="stroke:#181818;stroke-width:0.5;" x1="316" x2="581" y1="713.7969" y2="713.7969"/><ellipse cx="326" cy="727.4453" fill="none" rx="3" ry="3" style="stroke:#038048;stroke-width:1.0;"/><text fill="#000000" font-family="sans-serif" font-size="14" lengthAdjust="spacing" textLength="241" x="335" y="730.792">instelling: LDT_iWlzAgbCode {id}</text><ellipse cx="326" cy="743.7422" fill="none" rx="3" ry="3" style="stroke:#038048;stroke-width:1.0;"/><text fill="#000000" font-family="sans-serif" font-size="14" lengthAdjust="spacing" textLength="228" x="335" y="747.0889">ingangsdatum: LDT_Datum {id}</text><text fill="#000000" font-family="sans-serif" font-size="14" lengthAdjust="spacing" textLength="207" x="335" y="763.3857">einddatum: LDT_Datum[0..1]</text></g><!--class Overdracht--><g id="elem_Overdracht"><rect codeLine="75" fill="#F1F1F1" height="113.1875" id="Overdracht" rx="2.5" ry="2.5" style="stroke:#181818;stroke-width:0.5;" width="445" x="714" y="7"/><ellipse cx="891.75" cy="23" fill="#ADD1B2" rx="11" ry="11" style="stroke:#181818;stroke-width:1.0;"/><path d="M894.0938,18.6719 C893.1563,18.2344 892.5625,18.0938 891.6875,18.0938 C889.0625,18.0938 887.0625,20.1719 887.0625,22.8906 L887.0625,24.0156 C887.0625,26.5938 889.1719,28.4844 892.0625,28.4844 C893.2813,28.4844 894.4375,28.1875 895.1875,27.6406 C895.7656,27.2344 896.0938,26.7813 896.0938,26.3906 C896.0938,25.9375 895.7031,25.5469 895.2344,25.5469 C895.0156,25.5469 894.8125,25.625 894.625,25.8125 C894.1719,26.2969 894.1719,26.2969 893.9844,26.3906 C893.5625,26.6563 892.875,26.7813 892.1094,26.7813 C890.0625,26.7813 888.7656,25.6875 888.7656,23.9844 L888.7656,22.8906 C888.7656,21.1094 890.0156,19.7969 891.75,19.7969 C892.3281,19.7969 892.9375,19.9531 893.4063,20.2031 C893.8906,20.4844 894.0625,20.7031 894.1563,21.1094 C894.2188,21.5156 894.25,21.6406 894.3906,21.7656 C894.5313,21.9063 894.7656,22.0156 894.9844,22.0156 C895.25,22.0156 895.5156,21.875 895.6875,21.6563 C895.7969,21.5 895.8281,21.3125 895.8281,20.8906 L895.8281,19.4688 C895.8281,19.0313 895.8125,18.9063 895.7188,18.75 C895.5625,18.4844 895.2813,18.3438 894.9844,18.3438 C894.6875,18.3438 894.4844,18.4375 894.2656,18.75 L894.0938,18.6719 Z " fill="#000000"/><text fill="#000000" font-family="sans-serif" font-size="14" lengthAdjust="spacing" textLength="81" x="912.25" y="27.8467">Overdracht</text><line style="stroke:#181818;stroke-width:0.5;" x1="715" x2="1158" y1="39" y2="39"/><ellipse cx="725" cy="52.6484" fill="none" rx="3" ry="3" style="stroke:#038048;stroke-width:1.0;"/><text fill="#000000" font-family="sans-serif" font-size="14" lengthAdjust="spacing" text-decoration="underline" textLength="171" x="734" y="55.9951">overdrachtID: LDT_UUID</text><line style="stroke:#181818;stroke-width:0.5;" x1="715" x2="1158" y1="63.2969" y2="63.2969"/><ellipse cx="725" cy="76.9453" fill="none" rx="3" ry="3" style="stroke:#038048;stroke-width:1.0;"/><text fill="#000000" font-family="sans-serif" font-size="14" lengthAdjust="spacing" textLength="419" x="734" y="80.292">verantwoordelijkZorgkantoor: LDT_ZorgkantoorCode {id}</text><text fill="#000000" font-family="sans-serif" font-size="14" lengthAdjust="spacing" textLength="217" x="734" y="96.5889">overdrachtdatum: LDT_Datum</text><text fill="#000000" font-family="sans-serif" font-size="14" lengthAdjust="spacing" textLength="189" x="734" y="112.8857">verhuisdatum: LDT_Datum</text></g><!--class Overdrachtspecificatie--><g id="elem_Overdrachtspecificatie"><rect codeLine="83" fill="#F1F1F1" height="113.1875" id="Overdrachtspecificatie" rx="2.5" ry="2.5" style="stroke:#181818;stroke-width:0.5;" width="488" x="943.5" y="196.5"/><ellipse cx="1100.75" cy="212.5" fill="#ADD1B2" rx="11" ry="11" style="stroke:#181818;stroke-width:1.0;"/><path d="M1103.0938,208.1719 C1102.1563,207.7344 1101.5625,207.5938 1100.6875,207.5938 C1098.0625,207.5938 1096.0625,209.6719 1096.0625,212.3906 L1096.0625,213.5156 C1096.0625,216.0938 1098.1719,217.9844 1101.0625,217.9844 C1102.2813,217.9844 1103.4375,217.6875 1104.1875,217.1406 C1104.7656,216.7344 1105.0938,216.2813 1105.0938,215.8906 C1105.0938,215.4375 1104.7031,215.0469 1104.2344,215.0469 C1104.0156,215.0469 1103.8125,215.125 1103.625,215.3125 C1103.1719,215.7969 1103.1719,215.7969 1102.9844,215.8906 C1102.5625,216.1563 1101.875,216.2813 1101.1094,216.2813 C1099.0625,216.2813 1097.7656,215.1875 1097.7656,213.4844 L1097.7656,212.3906 C1097.7656,210.6094 1099.0156,209.2969 1100.75,209.2969 C1101.3281,209.2969 1101.9375,209.4531 1102.4063,209.7031 C1102.8906,209.9844 1103.0625,210.2031 1103.1563,210.6094 C1103.2188,211.0156 1103.25,211.1406 1103.3906,211.2656 C1103.5313,211.4063 1103.7656,211.5156 1103.9844,211.5156 C1104.25,211.5156 1104.5156,211.375 1104.6875,211.1563 C1104.7969,211 1104.8281,210.8125 1104.8281,210.3906 L1104.8281,208.9688 C1104.8281,208.5313 1104.8125,208.4063 1104.7188,208.25 C1104.5625,207.9844 1104.2813,207.8438 1103.9844,207.8438 C1103.6875,207.8438 1103.4844,207.9375 1103.2656,208.25 L1103.0938,208.1719 Z " fill="#000000"/><text fill="#000000" font-family="sans-serif" font-size="14" lengthAdjust="spacing" textLength="165" x="1121.25" y="217.3467">Overdrachtspecificatie</text><line style="stroke:#181818;stroke-width:0.5;" x1="944.5" x2="1430.5" y1="228.5" y2="228.5"/><ellipse cx="954.5" cy="242.1484" fill="none" rx="3" ry="3" style="stroke:#038048;stroke-width:1.0;"/><text fill="#000000" font-family="sans-serif" font-size="14" lengthAdjust="spacing" text-decoration="underline" textLength="255" x="963.5" y="245.4951">overdrachtspecificatieID: LDT_UUID</text><line style="stroke:#181818;stroke-width:0.5;" x1="944.5" x2="1430.5" y1="252.7969" y2="252.7969"/><ellipse cx="954.5" cy="266.4453" fill="none" rx="3" ry="3" style="stroke:#038048;stroke-width:1.0;"/><text fill="#000000" font-family="sans-serif" font-size="14" lengthAdjust="spacing" textLength="248" x="963.5" y="269.792">leveringstatus: LDT_leveringstatus</text><text fill="#000000" font-family="sans-serif" font-size="14" lengthAdjust="spacing" textLength="462" x="963.5" y="286.0889">leveringstatusClassificatie: LDT_LeveringstatusClassificatie[0..1]</text><text fill="#000000" font-family="sans-serif" font-size="14" lengthAdjust="spacing" textLength="396" x="963.5" y="302.3857">oorspronkelijkeToewijzingEinddatum: LDT_Datum[0..1]</text></g><!--reverse link Bemiddeling to Client--><g id="link_Bemiddeling_Client"><path codeLine="91" d="M514.756,334.816 C479.065,351.709 441.661,369.414 406.696,385.963 " fill="none" id="Bemiddeling-backto-Client" style="stroke:#181818;stroke-width:1.0;"/><polygon fill="none" points="512.17,328.296,533.242,326.066,518.16,340.95,512.17,328.296" style="stroke:#181818;stroke-width:1.0;"/><text fill="#000000" font-family="sans-serif" font-size="13" lengthAdjust="spacing" textLength="23" x="494.6338" y="345.8286">1..*</text><text fill="#000000" font-family="sans-serif" font-size="13" lengthAdjust="spacing" textLength="8" x="413.9787" y="374.7426">1</text></g><!--link Bemiddeling to BemiddeldeInstelling--><g id="link_Bemiddeling_BemiddeldeInstelling"><path codeLine="92" d="M685.5,326.21 C685.5,347.076 685.5,369.765 685.5,390.343 " fill="none" id="Bemiddeling-to-BemiddeldeInstelling" style="stroke:#181818;stroke-width:1.0;"/><polygon fill="none" points="692.5,390.463,685.5,410.463,678.5,390.463,692.5,390.463" style="stroke:#181818;stroke-width:1.0;"/><text fill="#000000" font-family="sans-serif" font-size="13" lengthAdjust="spacing" textLength="8" x="677.1313" y="345.7336">1</text><text fill="#000000" font-family="sans-serif" font-size="13" lengthAdjust="spacing" textLength="23" x="660.8109" y="399.3172">0..*</text></g><!--link Bemiddeling to Pgb--><g id="link_Bemiddeling_Pgb"><path codeLine="93" d="M826.806,326.066 C858.961,342.465 893.337,359.997 926.184,376.749 " fill="none" id="Bemiddeling-to-Pgb" style="stroke:#181818;stroke-width:1.0;"/><polygon fill="none" points="929.615,370.641,944.251,385.963,923.254,383.112,929.615,370.641" style="stroke:#181818;stroke-width:1.0;"/><text fill="#000000" font-family="sans-serif" font-size="13" lengthAdjust="spacing" textLength="8" x="831.893" y="345.8286">1</text><text fill="#000000" font-family="sans-serif" font-size="13" lengthAdjust="spacing" textLength="23" x="905.4988" y="374.7426">0..*</text></g><!--link BemiddeldeInstelling to ZorgInNatura--><g id="link_BemiddeldeInstelling_ZorgInNatura"><path codeLine="94" d="M753.966,507.587 C784.171,528.582 821.324,554.405 858.964,580.567 " fill="none" id="BemiddeldeInstelling-to-ZorgInNatura" style="stroke:#181818;stroke-width:1.0;"/><polygon fill="none" points="862.968,574.825,875.396,591.988,854.978,586.321,862.968,574.825" style="stroke:#181818;stroke-width:1.0;"/><text fill="#000000" font-family="sans-serif" font-size="13" lengthAdjust="spacing" textLength="8" x="755.0315" y="527.5582">1</text><text fill="#000000" font-family="sans-serif" font-size="13" lengthAdjust="spacing" textLength="23" x="840.5057" y="580.7763">1..*</text></g><!--reverse link Overdracht to Bemiddeling--><g id="link_Overdracht_Bemiddeling"><path codeLine="95" d="M845.666,132.354 C825.037,147.764 803.053,164.187 782.191,179.771 " fill="none" id="Overdracht-backto-Bemiddeling" style="stroke:#181818;stroke-width:1.0;"/><polygon fill="none" points="841.659,126.61,861.871,120.249,850.038,137.826,841.659,126.61" style="stroke:#181818;stroke-width:1.0;"/><text fill="#000000" font-family="sans-serif" font-size="13" lengthAdjust="spacing" textLength="24" x="827.3131" y="140.1429">0..1</text><text fill="#000000" font-family="sans-serif" font-size="13" lengthAdjust="spacing" textLength="8" x="783.3153" y="168.9084">1</text></g><!--link Overdracht to Overdrachtspecificatie--><g id="link_Overdracht_Overdrachtspecificatie"><path codeLine="96" d="M1011.13,120.249 C1038.07,140.372 1068.77,163.307 1096.92,184.339 " fill="none" id="Overdracht-to-Overdrachtspecificatie" style="stroke:#181818;stroke-width:1.0;"/><polygon fill="none" points="1101.33,178.889,1113.16,196.466,1092.95,190.105,1101.33,178.889" style="stroke:#181818;stroke-width:1.0;"/><text fill="#000000" font-family="sans-serif" font-size="13" lengthAdjust="spacing" textLength="8" x="1011.7369" y="140.1429">1</text><text fill="#000000" font-family="sans-serif" font-size="13" lengthAdjust="spacing" textLength="23" x="1079.1618" y="185.325">0..*</text></g><!--reverse link Overdrachtspecificatie to Pgb--><g id="link_Overdrachtspecificatie_Pgb"><path codeLine="97" d="M1150.64,327.728 C1141.17,346.657 1131,366.996 1121.58,385.844 " fill="none" id="Overdrachtspecificatie-backto-Pgb" style="stroke:#181818;stroke-width:1.0;"/><polygon fill="none" points="1144.42,324.502,1159.63,309.744,1156.94,330.763,1144.42,324.502" style="stroke:#181818;stroke-width:1.0;"/><text fill="#000000" font-family="sans-serif" font-size="13" lengthAdjust="spacing" textLength="24" x="1130.7708" y="329.6373">0..1</text><text fill="#000000" font-family="sans-serif" font-size="13" lengthAdjust="spacing" textLength="8" x="1116.7379" y="374.9886">1</text></g><!--reverse link Overdrachtspecificatie to ZorgInNatura--><g id="link_Overdrachtspecificatie_ZorgInNatura"><path codeLine="98" d="M1240.44,326.748 C1251.16,345.21 1260.87,365.614 1266.5,386 C1283.79,448.544 1294.01,473.231 1266.5,532 C1256.36,553.66 1242.21,573.635 1225.95,591.78 " fill="none" id="Overdrachtspecificatie-backto-ZorgInNatura" style="stroke:#181818;stroke-width:1.0;"/><polygon fill="none" points="1234.47,330.409,1229.94,309.708,1246.39,323.069,1234.47,330.409" style="stroke:#181818;stroke-width:1.0;"/><text fill="#000000" font-family="sans-serif" font-size="13" lengthAdjust="spacing" textLength="24" x="1209.6499" y="329.5969">0..1</text><text fill="#000000" font-family="sans-serif" font-size="13" lengthAdjust="spacing" textLength="8" x="1228.4587" y="580.9595">1</text></g><!--link Client to Dossierhouder--><g id="link_Client_Dossierhouder"><path codeLine="99" d="M309.833,532.161 C336.012,566.301 367.19,606.961 393.345,641.072 " fill="none" id="Client-to-Dossierhouder" style="stroke:#181818;stroke-width:1.0;"/><polygon fill="none" points="399.123,637.103,405.738,657.233,388.013,645.622,399.123,637.103" style="stroke:#181818;stroke-width:1.0;"/><text fill="#000000" font-family="sans-serif" font-size="13" lengthAdjust="spacing" textLength="8" x="306.7257" y="551.9327">1</text><text fill="#000000" font-family="sans-serif" font-size="13" lengthAdjust="spacing" textLength="23" x="376.1248" y="646.464">0..*</text></g><!--link Client to CoordinatorZorgThuis--><g id="link_Client_CoordinatorZorgThuis"><path codeLine="100" d="M222.84,532.161 C208.202,565.525 190.832,605.116 176.082,638.736 " fill="none" id="Client-to-CoordinatorZorgThuis" style="stroke:#181818;stroke-width:1.0;"/><polygon fill="none" points="182.412,641.731,167.967,657.233,169.592,636.106,182.412,641.731" style="stroke:#181818;stroke-width:1.0;"/><text fill="#000000" font-family="sans-serif" font-size="13" lengthAdjust="spacing" textLength="8" x="211.4412" y="551.9327">1</text><text fill="#000000" font-family="sans-serif" font-size="13" lengthAdjust="spacing" textLength="23" x="146.5474" y="646.464">0..*</text></g><!--SRC=[rLPDRniX4Btlhq0-jh9bf-gXKLMfiNFOoasZnacbLbM4bycQU04BMAToalyUMF0k-nLRFRK-iJCFUFE6cJ4N6X1Mw0Qaee9JdaR8_6OKfnAphREUeideZxDZ3QVeP7poRZX-Fnn_Y80JnCqPKPHaM2aqpIXmZHuBzDj7fR6coNDIMEFPAPhF5hVNr_6iyD_UEjXISUSvosKAyWhabYR0SyP0eaTAdWjO1d07m5T0YKFFAqC1MELKOQcLytvEbrD1uDTuD9hyBlo9O2pdD36Ku4P8vd3JmBerrc23nZXpe8LP1OxdVRXdm2WXa1dTcZ4lArTlu0_PBkR4tHs2gg2NeBASQgU55oaqkNDCdZ3N3q98U-7z-gUGwTfOZC7j2GnMbEhyrbQhPinJp5D5iCwzI3Exh7PrRJgddBHsUCrQUX68kTAGlIPSYEbLa9QGMjQ308rKMm7IFDJZL2cvMc_CBqmS4ZSvxW9VBxSCZ4w6cTgMZsqUcWAIkzt6Cl2qt4VWrW8UwFtE2d4mDLZflIHCC5Ds3lQrMBjdNPxMbRFWcMz0cZBKEFN4BillmYqs73Fl-e8lmDSQAfmI2F2OQmdhTPcTxtLZS1LeXZFmRU3SVGHkdsQUciUlWR7oHFeZsxKhNPcCwaKPfeDUrOrLeY_JPJE_ctJPczR_BbTbe5DRi9HZBQHzt0lRC5kjkWDpTFK5sGWKeOTqWFxGIkupeHG5kH8viKEXJfg4pd-1xJTJvaJYPDKQXQBqzFBy-svU7Tuak6_RDfqjNmTjjO64thd9r1z2Y3hS1itkt0_dkisFzz0qjNpsHpTwPniGr87HH6sauEj2EbWSKpyc_d2G3oQZqPi1-lWq79hrmF-dQK06Q3Xy-eG6umBRDTTUtM1wJjGv32kWOn5EeIXuLlQSIK0okAm6QzpRdU6e9_7DIoph8w4rtlvVOPDChQRxG5rDwmK0]--></g></svg>