<?xml version="1.0" encoding="us-ascii" standalone="no"?><svg xmlns="http://www.w3.org/2000/svg" xmlns:xlink="http://www.w3.org/1999/xlink" contentStyleType="text/css" height="825px" preserveAspectRatio="none" style="width:1340px;height:825px;background:#FFFFFF;" version="1.1" viewBox="0 0 1340 825" width="1340px" zoomAndPan="magnify"><defs/><g><g id="elem_Versioning"><path d="M428.5,43.5 L428.5,83.7656 L580.5,83.7656 L580.5,53.5 L570.5,43.5 L428.5,43.5 " fill="#FEFFDD" style="stroke:#181818;stroke-width:0.5;"/><path d="M570.5,43.5 L570.5,53.5 L580.5,53.5 L570.5,43.5 " fill="#FEFFDD" style="stroke:#181818;stroke-width:1.0;"/><text fill="#000000" font-family="sans-serif" font-size="13" lengthAdjust="spacing" textLength="131" x="434.5" y="60.5669">Diagramversion: 1.x</text><text fill="#000000" font-family="sans-serif" font-size="13" lengthAdjust="spacing" textLength="114" x="434.5" y="75.6997">Date: 2023-05-24</text></g><!--class Client--><g id="elem_Client"><rect codeLine="6" fill="#F1F1F1" height="145.7813" id="Client" rx="2.5" ry="2.5" style="stroke:#181818;stroke-width:0.5;" width="390" x="100.5" y="434"/><ellipse cx="269.75" cy="450" fill="#ADD1B2" rx="11" ry="11" style="stroke:#181818;stroke-width:1.0;"/><path d="M272.0938,445.6719 C271.1563,445.2344 270.5625,445.0938 269.6875,445.0938 C267.0625,445.0938 265.0625,447.1719 265.0625,449.8906 L265.0625,451.0156 C265.0625,453.5938 267.1719,455.4844 270.0625,455.4844 C271.2813,455.4844 272.4375,455.1875 273.1875,454.6406 C273.7656,454.2344 274.0938,453.7813 274.0938,453.3906 C274.0938,452.9375 273.7031,452.5469 273.2344,452.5469 C273.0156,452.5469 272.8125,452.625 272.625,452.8125 C272.1719,453.2969 272.1719,453.2969 271.9844,453.3906 C271.5625,453.6563 270.875,453.7813 270.1094,453.7813 C268.0625,453.7813 266.7656,452.6875 266.7656,450.9844 L266.7656,449.8906 C266.7656,448.1094 268.0156,446.7969 269.75,446.7969 C270.3281,446.7969 270.9375,446.9531 271.4063,447.2031 C271.8906,447.4844 272.0625,447.7031 272.1563,448.1094 C272.2188,448.5156 272.25,448.6406 272.3906,448.7656 C272.5313,448.9063 272.7656,449.0156 272.9844,449.0156 C273.25,449.0156 273.5156,448.875 273.6875,448.6563 C273.7969,448.5 273.8281,448.3125 273.8281,447.8906 L273.8281,446.4688 C273.8281,446.0313 273.8125,445.9063 273.7188,445.75 C273.5625,445.4844 273.2813,445.3438 272.9844,445.3438 C272.6875,445.3438 272.4844,445.4375 272.2656,445.75 L272.0938,445.6719 Z " fill="#000000"/><text fill="#000000" font-family="sans-serif" font-size="14" lengthAdjust="spacing" textLength="43" x="290.25" y="454.8467">Client</text><line style="stroke:#181818;stroke-width:0.5;" x1="101.5" x2="489.5" y1="466" y2="466"/><ellipse cx="111.5" cy="479.6484" fill="none" rx="3" ry="3" style="stroke:#038048;stroke-width:1.0;"/><text fill="#000000" font-family="sans-serif" font-size="14" lengthAdjust="spacing" text-decoration="underline" textLength="133" x="120.5" y="482.9951">clientID: LDT_UUID</text><line style="stroke:#181818;stroke-width:0.5;" x1="101.5" x2="489.5" y1="490.2969" y2="490.2969"/><ellipse cx="111.5" cy="503.9453" fill="none" rx="3" ry="3" style="stroke:#038048;stroke-width:1.0;"/><text fill="#000000" font-family="sans-serif" font-size="14" lengthAdjust="spacing" textLength="266" x="120.5" y="507.292">bsn: LDT_BurgerServicenummer {id}</text><text fill="#000000" font-family="sans-serif" font-size="14" lengthAdjust="spacing" textLength="220" x="120.5" y="523.5889">leefeenheid: LDT_Leefeenheid</text><text fill="#000000" font-family="sans-serif" font-size="14" lengthAdjust="spacing" textLength="204" x="120.5" y="539.8857">huisarts: LDT_AgbCode[0..1]</text><text fill="#000000" font-family="sans-serif" font-size="14" lengthAdjust="spacing" textLength="364" x="120.5" y="556.1826">communicatieVorm: LDT_Communicatievorm[0..1]</text><text fill="#000000" font-family="sans-serif" font-size="14" lengthAdjust="spacing" textLength="138" x="120.5" y="572.4795">taal: LDT_Taal[0..1]</text></g><!--class Bemiddeling--><g id="elem_Bemiddeling"><rect codeLine="16" fill="#F1F1F1" height="129.4844" id="Bemiddeling" rx="2.5" ry="2.5" style="stroke:#181818;stroke-width:0.5;" width="445" x="365" y="180"/><ellipse cx="538.25" cy="196" fill="#ADD1B2" rx="11" ry="11" style="stroke:#181818;stroke-width:1.0;"/><path d="M540.5938,191.6719 C539.6563,191.2344 539.0625,191.0938 538.1875,191.0938 C535.5625,191.0938 533.5625,193.1719 533.5625,195.8906 L533.5625,197.0156 C533.5625,199.5938 535.6719,201.4844 538.5625,201.4844 C539.7813,201.4844 540.9375,201.1875 541.6875,200.6406 C542.2656,200.2344 542.5938,199.7813 542.5938,199.3906 C542.5938,198.9375 542.2031,198.5469 541.7344,198.5469 C541.5156,198.5469 541.3125,198.625 541.125,198.8125 C540.6719,199.2969 540.6719,199.2969 540.4844,199.3906 C540.0625,199.6563 539.375,199.7813 538.6094,199.7813 C536.5625,199.7813 535.2656,198.6875 535.2656,196.9844 L535.2656,195.8906 C535.2656,194.1094 536.5156,192.7969 538.25,192.7969 C538.8281,192.7969 539.4375,192.9531 539.9063,193.2031 C540.3906,193.4844 540.5625,193.7031 540.6563,194.1094 C540.7188,194.5156 540.75,194.6406 540.8906,194.7656 C541.0313,194.9063 541.2656,195.0156 541.4844,195.0156 C541.75,195.0156 542.0156,194.875 542.1875,194.6563 C542.2969,194.5 542.3281,194.3125 542.3281,193.8906 L542.3281,192.4688 C542.3281,192.0313 542.3125,191.9063 542.2188,191.75 C542.0625,191.4844 541.7813,191.3438 541.4844,191.3438 C541.1875,191.3438 540.9844,191.4375 540.7656,191.75 L540.5938,191.6719 Z " fill="#000000"/><text fill="#000000" font-family="sans-serif" font-size="14" lengthAdjust="spacing" textLength="90" x="558.75" y="200.8467">Bemiddeling</text><line style="stroke:#181818;stroke-width:0.5;" x1="366" x2="809" y1="212" y2="212"/><ellipse cx="376" cy="225.6484" fill="none" rx="3" ry="3" style="stroke:#038048;stroke-width:1.0;"/><text fill="#000000" font-family="sans-serif" font-size="14" lengthAdjust="spacing" text-decoration="underline" textLength="182" x="385" y="228.9951">bemiddelingID: LDT_UUID</text><line style="stroke:#181818;stroke-width:0.5;" x1="366" x2="809" y1="236.2969" y2="236.2969"/><ellipse cx="376" cy="249.9453" fill="none" rx="3" ry="3" style="stroke:#038048;stroke-width:1.0;"/><text fill="#000000" font-family="sans-serif" font-size="14" lengthAdjust="spacing" textLength="212" x="385" y="253.292">wlzIndicatieID: LDT_UUID {id}</text><ellipse cx="376" cy="266.2422" fill="none" rx="3" ry="3" style="stroke:#038048;stroke-width:1.0;"/><text fill="#000000" font-family="sans-serif" font-size="14" lengthAdjust="spacing" textLength="419" x="385" y="269.5889">verantwoordelijkZorgkantoor: LDT_ZorgkantoorCode {id}</text><ellipse cx="376" cy="282.5391" fill="none" rx="3" ry="3" style="stroke:#038048;stroke-width:1.0;"/><text fill="#000000" font-family="sans-serif" font-size="14" lengthAdjust="spacing" textLength="380" x="385" y="285.8857">verantwoordelijkheidIngangsdatum: LDT_Datum {id}</text><text fill="#000000" font-family="sans-serif" font-size="14" lengthAdjust="spacing" textLength="363" x="385" y="302.1826">verantwoordelijkheidEinddatum: LDT_Datum [0..1]</text></g><!--class ZorgInNatura--><g id="elem_ZorgInNatura"><rect codeLine="25" fill="#F1F1F1" height="276.1563" id="ZorgInNatura" rx="2.5" ry="2.5" style="stroke:#181818;stroke-width:0.5;" width="402" x="888.5" y="369"/><ellipse cx="1038.25" cy="385" fill="#ADD1B2" rx="11" ry="11" style="stroke:#181818;stroke-width:1.0;"/><path d="M1040.5938,380.6719 C1039.6563,380.2344 1039.0625,380.0938 1038.1875,380.0938 C1035.5625,380.0938 1033.5625,382.1719 1033.5625,384.8906 L1033.5625,386.0156 C1033.5625,388.5938 1035.6719,390.4844 1038.5625,390.4844 C1039.7813,390.4844 1040.9375,390.1875 1041.6875,389.6406 C1042.2656,389.2344 1042.5938,388.7813 1042.5938,388.3906 C1042.5938,387.9375 1042.2031,387.5469 1041.7344,387.5469 C1041.5156,387.5469 1041.3125,387.625 1041.125,387.8125 C1040.6719,388.2969 1040.6719,388.2969 1040.4844,388.3906 C1040.0625,388.6563 1039.375,388.7813 1038.6094,388.7813 C1036.5625,388.7813 1035.2656,387.6875 1035.2656,385.9844 L1035.2656,384.8906 C1035.2656,383.1094 1036.5156,381.7969 1038.25,381.7969 C1038.8281,381.7969 1039.4375,381.9531 1039.9063,382.2031 C1040.3906,382.4844 1040.5625,382.7031 1040.6563,383.1094 C1040.7188,383.5156 1040.75,383.6406 1040.8906,383.7656 C1041.0313,383.9063 1041.2656,384.0156 1041.4844,384.0156 C1041.75,384.0156 1042.0156,383.875 1042.1875,383.6563 C1042.2969,383.5 1042.3281,383.3125 1042.3281,382.8906 L1042.3281,381.4688 C1042.3281,381.0313 1042.3125,380.9063 1042.2188,380.75 C1042.0625,380.4844 1041.7813,380.3438 1041.4844,380.3438 C1041.1875,380.3438 1040.9844,380.4375 1040.7656,380.75 L1040.5938,380.6719 Z " fill="#000000"/><text fill="#000000" font-family="sans-serif" font-size="14" lengthAdjust="spacing" textLength="94" x="1058.75" y="389.8467">ZorgInNatura</text><line style="stroke:#181818;stroke-width:0.5;" x1="889.5" x2="1289.5" y1="401" y2="401"/><ellipse cx="899.5" cy="414.6484" fill="none" rx="3" ry="3" style="stroke:#038048;stroke-width:1.0;"/><text fill="#000000" font-family="sans-serif" font-size="14" lengthAdjust="spacing" text-decoration="underline" textLength="184" x="908.5" y="417.9951">zorgInNaturaID: LDT_UUID</text><line style="stroke:#181818;stroke-width:0.5;" x1="889.5" x2="1289.5" y1="425.2969" y2="425.2969"/><ellipse cx="899.5" cy="438.9453" fill="none" rx="3" ry="3" style="stroke:#038048;stroke-width:1.0;"/><text fill="#000000" font-family="sans-serif" font-size="14" lengthAdjust="spacing" textLength="287" x="908.5" y="442.292">leveringsvorm: LDT_Leveringsvorm {id}</text><ellipse cx="899.5" cy="455.2422" fill="none" rx="3" ry="3" style="stroke:#038048;stroke-width:1.0;"/><text fill="#000000" font-family="sans-serif" font-size="14" lengthAdjust="spacing" textLength="207" x="908.5" y="458.5889">zzpCode: LDT_ZzpCode {id}</text><ellipse cx="899.5" cy="471.5391" fill="none" rx="3" ry="3" style="stroke:#038048;stroke-width:1.0;"/><text fill="#000000" font-family="sans-serif" font-size="14" lengthAdjust="spacing" textLength="302" x="908.5" y="474.8857">toewijzingIngangsdatum: LDT_Datum {id}</text><ellipse cx="899.5" cy="487.8359" fill="none" rx="3" ry="3" style="stroke:#038048;stroke-width:1.0;"/><text fill="#000000" font-family="sans-serif" font-size="14" lengthAdjust="spacing" textLength="211" x="908.5" y="491.1826">instelling: LDT_AgbCode {id}</text><ellipse cx="899.5" cy="504.1328" fill="none" rx="3" ry="3" style="stroke:#038048;stroke-width:1.0;"/><text fill="#000000" font-family="sans-serif" font-size="14" lengthAdjust="spacing" textLength="376" x="908.5" y="507.4795">uitvoerendZorgkantoor: LDT_ZorgkantoorCode {id}</text><text fill="#000000" font-family="sans-serif" font-size="14" lengthAdjust="spacing" textLength="249" x="908.5" y="523.7764">vaststellingmoment: LDT_Moment</text><text fill="#000000" font-family="sans-serif" font-size="14" lengthAdjust="spacing" textLength="281" x="908.5" y="540.0732">toewijzingEinddatum: LDT_Datum[0..1]</text><text fill="#000000" font-family="sans-serif" font-size="14" lengthAdjust="spacing" textLength="211" x="908.5" y="556.3701">percentage: LDT_Percentage</text><text fill="#000000" font-family="sans-serif" font-size="14" lengthAdjust="spacing" textLength="181" x="908.5" y="572.667">opname: LDT_JaNee[0..1]</text><text fill="#000000" font-family="sans-serif" font-size="14" lengthAdjust="spacing" textLength="320" x="908.5" y="588.9639">redenIntrekking: LDT_RedenIntrekking[0..1]</text><text fill="#000000" font-family="sans-serif" font-size="14" lengthAdjust="spacing" textLength="202" x="908.5" y="605.2607">etmalen: LDT_Etmalen[0..1]</text><text fill="#000000" font-family="sans-serif" font-size="14" lengthAdjust="spacing" textLength="332" x="908.5" y="621.5576">instellngBestemming: LDT_iWlzAgbCode[0..1]</text><text fill="#000000" font-family="sans-serif" font-size="14" lengthAdjust="spacing" textLength="274" x="908.5" y="637.8545">soortToewijzing: LDT_SoortToewijzing</text></g><!--class Pgb--><g id="elem_Pgb"><rect codeLine="43" fill="#F1F1F1" height="145.7813" id="Pgb" rx="2.5" ry="2.5" style="stroke:#181818;stroke-width:0.5;" width="328" x="525.5" y="434"/><ellipse cx="671.25" cy="450" fill="#ADD1B2" rx="11" ry="11" style="stroke:#181818;stroke-width:1.0;"/><path d="M673.5938,445.6719 C672.6563,445.2344 672.0625,445.0938 671.1875,445.0938 C668.5625,445.0938 666.5625,447.1719 666.5625,449.8906 L666.5625,451.0156 C666.5625,453.5938 668.6719,455.4844 671.5625,455.4844 C672.7813,455.4844 673.9375,455.1875 674.6875,454.6406 C675.2656,454.2344 675.5938,453.7813 675.5938,453.3906 C675.5938,452.9375 675.2031,452.5469 674.7344,452.5469 C674.5156,452.5469 674.3125,452.625 674.125,452.8125 C673.6719,453.2969 673.6719,453.2969 673.4844,453.3906 C673.0625,453.6563 672.375,453.7813 671.6094,453.7813 C669.5625,453.7813 668.2656,452.6875 668.2656,450.9844 L668.2656,449.8906 C668.2656,448.1094 669.5156,446.7969 671.25,446.7969 C671.8281,446.7969 672.4375,446.9531 672.9063,447.2031 C673.3906,447.4844 673.5625,447.7031 673.6563,448.1094 C673.7188,448.5156 673.75,448.6406 673.8906,448.7656 C674.0313,448.9063 674.2656,449.0156 674.4844,449.0156 C674.75,449.0156 675.0156,448.875 675.1875,448.6563 C675.2969,448.5 675.3281,448.3125 675.3281,447.8906 L675.3281,446.4688 C675.3281,446.0313 675.3125,445.9063 675.2188,445.75 C675.0625,445.4844 674.7813,445.3438 674.4844,445.3438 C674.1875,445.3438 673.9844,445.4375 673.7656,445.75 L673.5938,445.6719 Z " fill="#000000"/><text fill="#000000" font-family="sans-serif" font-size="14" lengthAdjust="spacing" textLength="28" x="691.75" y="454.8467">Pgb</text><line style="stroke:#181818;stroke-width:0.5;" x1="526.5" x2="852.5" y1="466" y2="466"/><ellipse cx="536.5" cy="479.6484" fill="none" rx="3" ry="3" style="stroke:#038048;stroke-width:1.0;"/><text fill="#000000" font-family="sans-serif" font-size="14" lengthAdjust="spacing" text-decoration="underline" textLength="121" x="545.5" y="482.9951">pgbID: LDT_UUID</text><line style="stroke:#181818;stroke-width:0.5;" x1="526.5" x2="852.5" y1="490.2969" y2="490.2969"/><ellipse cx="536.5" cy="503.9453" fill="none" rx="3" ry="3" style="stroke:#038048;stroke-width:1.0;"/><text fill="#000000" font-family="sans-serif" font-size="14" lengthAdjust="spacing" textLength="207" x="545.5" y="507.292">zzpCode: LDT_ZzpCode {id}</text><ellipse cx="536.5" cy="520.2422" fill="none" rx="3" ry="3" style="stroke:#038048;stroke-width:1.0;"/><text fill="#000000" font-family="sans-serif" font-size="14" lengthAdjust="spacing" textLength="302" x="545.5" y="523.5889">toewijzingIngangsdatum: LDT_Datum {id}</text><text fill="#000000" font-family="sans-serif" font-size="14" lengthAdjust="spacing" textLength="249" x="545.5" y="539.8857">vaststellingmoment: LDT_Moment</text><text fill="#000000" font-family="sans-serif" font-size="14" lengthAdjust="spacing" textLength="281" x="545.5" y="556.1826">toewijzingEinddatum: LDT_Datum[0..1]</text><text fill="#000000" font-family="sans-serif" font-size="14" lengthAdjust="spacing" textLength="211" x="545.5" y="572.4795">percentage: LDT_Percentage</text></g><!--class CoordinatorZorgThuis--><g id="elem_CoordinatorZorgThuis"><rect codeLine="53" fill="#F1F1F1" height="113.1875" id="CoordinatorZorgThuis" rx="2.5" ry="2.5" style="stroke:#181818;stroke-width:0.5;" width="273" x="7" y="705"/><ellipse cx="60.75" cy="721" fill="#ADD1B2" rx="11" ry="11" style="stroke:#181818;stroke-width:1.0;"/><path d="M63.0938,716.6719 C62.1563,716.2344 61.5625,716.0938 60.6875,716.0938 C58.0625,716.0938 56.0625,718.1719 56.0625,720.8906 L56.0625,722.0156 C56.0625,724.5938 58.1719,726.4844 61.0625,726.4844 C62.2813,726.4844 63.4375,726.1875 64.1875,725.6406 C64.7656,725.2344 65.0938,724.7813 65.0938,724.3906 C65.0938,723.9375 64.7031,723.5469 64.2344,723.5469 C64.0156,723.5469 63.8125,723.625 63.625,723.8125 C63.1719,724.2969 63.1719,724.2969 62.9844,724.3906 C62.5625,724.6563 61.875,724.7813 61.1094,724.7813 C59.0625,724.7813 57.7656,723.6875 57.7656,721.9844 L57.7656,720.8906 C57.7656,719.1094 59.0156,717.7969 60.75,717.7969 C61.3281,717.7969 61.9375,717.9531 62.4063,718.2031 C62.8906,718.4844 63.0625,718.7031 63.1563,719.1094 C63.2188,719.5156 63.25,719.6406 63.3906,719.7656 C63.5313,719.9063 63.7656,720.0156 63.9844,720.0156 C64.25,720.0156 64.5156,719.875 64.6875,719.6563 C64.7969,719.5 64.8281,719.3125 64.8281,718.8906 L64.8281,717.4688 C64.8281,717.0313 64.8125,716.9063 64.7188,716.75 C64.5625,716.4844 64.2813,716.3438 63.9844,716.3438 C63.6875,716.3438 63.4844,716.4375 63.2656,716.75 L63.0938,716.6719 Z " fill="#000000"/><text fill="#000000" font-family="sans-serif" font-size="14" lengthAdjust="spacing" textLength="157" x="81.25" y="725.8467">CoordinatorZorgThuis</text><line style="stroke:#181818;stroke-width:0.5;" x1="8" x2="279" y1="737" y2="737"/><ellipse cx="18" cy="750.6484" fill="none" rx="3" ry="3" style="stroke:#038048;stroke-width:1.0;"/><text fill="#000000" font-family="sans-serif" font-size="14" lengthAdjust="spacing" text-decoration="underline" textLength="247" x="27" y="753.9951">coordinatorZorgThuisID: LDT_UUID</text><line style="stroke:#181818;stroke-width:0.5;" x1="8" x2="279" y1="761.2969" y2="761.2969"/><ellipse cx="18" cy="774.9453" fill="none" rx="3" ry="3" style="stroke:#038048;stroke-width:1.0;"/><text fill="#000000" font-family="sans-serif" font-size="14" lengthAdjust="spacing" textLength="241" x="27" y="778.292">instelling: LDT_iWlzAgbCode {id}</text><ellipse cx="18" cy="791.2422" fill="none" rx="3" ry="3" style="stroke:#038048;stroke-width:1.0;"/><text fill="#000000" font-family="sans-serif" font-size="14" lengthAdjust="spacing" textLength="228" x="27" y="794.5889">ingangsdatum: LDT_Datum {id}</text><text fill="#000000" font-family="sans-serif" font-size="14" lengthAdjust="spacing" textLength="207" x="27" y="810.8857">einddatum: LDT_Datum[0..1]</text></g><!--class Dossierhouder--><g id="elem_Dossierhouder"><rect codeLine="61" fill="#F1F1F1" height="113.1875" id="Dossierhouder" rx="2.5" ry="2.5" style="stroke:#181818;stroke-width:0.5;" width="267" x="315" y="705"/><ellipse cx="392.75" cy="721" fill="#ADD1B2" rx="11" ry="11" style="stroke:#181818;stroke-width:1.0;"/><path d="M395.0938,716.6719 C394.1563,716.2344 393.5625,716.0938 392.6875,716.0938 C390.0625,716.0938 388.0625,718.1719 388.0625,720.8906 L388.0625,722.0156 C388.0625,724.5938 390.1719,726.4844 393.0625,726.4844 C394.2813,726.4844 395.4375,726.1875 396.1875,725.6406 C396.7656,725.2344 397.0938,724.7813 397.0938,724.3906 C397.0938,723.9375 396.7031,723.5469 396.2344,723.5469 C396.0156,723.5469 395.8125,723.625 395.625,723.8125 C395.1719,724.2969 395.1719,724.2969 394.9844,724.3906 C394.5625,724.6563 393.875,724.7813 393.1094,724.7813 C391.0625,724.7813 389.7656,723.6875 389.7656,721.9844 L389.7656,720.8906 C389.7656,719.1094 391.0156,717.7969 392.75,717.7969 C393.3281,717.7969 393.9375,717.9531 394.4063,718.2031 C394.8906,718.4844 395.0625,718.7031 395.1563,719.1094 C395.2188,719.5156 395.25,719.6406 395.3906,719.7656 C395.5313,719.9063 395.7656,720.0156 395.9844,720.0156 C396.25,720.0156 396.5156,719.875 396.6875,719.6563 C396.7969,719.5 396.8281,719.3125 396.8281,718.8906 L396.8281,717.4688 C396.8281,717.0313 396.8125,716.9063 396.7188,716.75 C396.5625,716.4844 396.2813,716.3438 395.9844,716.3438 C395.6875,716.3438 395.4844,716.4375 395.2656,716.75 L395.0938,716.6719 Z " fill="#000000"/><text fill="#000000" font-family="sans-serif" font-size="14" lengthAdjust="spacing" textLength="103" x="413.25" y="725.8467">Dossierhouder</text><line style="stroke:#181818;stroke-width:0.5;" x1="316" x2="581" y1="737" y2="737"/><ellipse cx="326" cy="750.6484" fill="none" rx="3" ry="3" style="stroke:#038048;stroke-width:1.0;"/><text fill="#000000" font-family="sans-serif" font-size="14" lengthAdjust="spacing" text-decoration="underline" textLength="193" x="335" y="753.9951">dossierhouderID: LDT_UUID</text><line style="stroke:#181818;stroke-width:0.5;" x1="316" x2="581" y1="761.2969" y2="761.2969"/><ellipse cx="326" cy="774.9453" fill="none" rx="3" ry="3" style="stroke:#038048;stroke-width:1.0;"/><text fill="#000000" font-family="sans-serif" font-size="14" lengthAdjust="spacing" textLength="241" x="335" y="778.292">instelling: LDT_iWlzAgbCode {id}</text><ellipse cx="326" cy="791.2422" fill="none" rx="3" ry="3" style="stroke:#038048;stroke-width:1.0;"/><text fill="#000000" font-family="sans-serif" font-size="14" lengthAdjust="spacing" textLength="228" x="335" y="794.5889">ingangsdatum: LDT_Datum {id}</text><text fill="#000000" font-family="sans-serif" font-size="14" lengthAdjust="spacing" textLength="207" x="335" y="810.8857">einddatum: LDT_Datum[0..1]</text></g><!--class Overdracht--><g id="elem_Overdracht"><rect codeLine="69" fill="#F1F1F1" height="113.1875" id="Overdracht" rx="2.5" ry="2.5" style="stroke:#181818;stroke-width:0.5;" width="445" x="616" y="7"/><ellipse cx="793.75" cy="23" fill="#ADD1B2" rx="11" ry="11" style="stroke:#181818;stroke-width:1.0;"/><path d="M796.0938,18.6719 C795.1563,18.2344 794.5625,18.0938 793.6875,18.0938 C791.0625,18.0938 789.0625,20.1719 789.0625,22.8906 L789.0625,24.0156 C789.0625,26.5938 791.1719,28.4844 794.0625,28.4844 C795.2813,28.4844 796.4375,28.1875 797.1875,27.6406 C797.7656,27.2344 798.0938,26.7813 798.0938,26.3906 C798.0938,25.9375 797.7031,25.5469 797.2344,25.5469 C797.0156,25.5469 796.8125,25.625 796.625,25.8125 C796.1719,26.2969 796.1719,26.2969 795.9844,26.3906 C795.5625,26.6563 794.875,26.7813 794.1094,26.7813 C792.0625,26.7813 790.7656,25.6875 790.7656,23.9844 L790.7656,22.8906 C790.7656,21.1094 792.0156,19.7969 793.75,19.7969 C794.3281,19.7969 794.9375,19.9531 795.4063,20.2031 C795.8906,20.4844 796.0625,20.7031 796.1563,21.1094 C796.2188,21.5156 796.25,21.6406 796.3906,21.7656 C796.5313,21.9063 796.7656,22.0156 796.9844,22.0156 C797.25,22.0156 797.5156,21.875 797.6875,21.6563 C797.7969,21.5 797.8281,21.3125 797.8281,20.8906 L797.8281,19.4688 C797.8281,19.0313 797.8125,18.9063 797.7188,18.75 C797.5625,18.4844 797.2813,18.3438 796.9844,18.3438 C796.6875,18.3438 796.4844,18.4375 796.2656,18.75 L796.0938,18.6719 Z " fill="#000000"/><text fill="#000000" font-family="sans-serif" font-size="14" lengthAdjust="spacing" textLength="81" x="814.25" y="27.8467">Overdracht</text><line style="stroke:#181818;stroke-width:0.5;" x1="617" x2="1060" y1="39" y2="39"/><ellipse cx="627" cy="52.6484" fill="none" rx="3" ry="3" style="stroke:#038048;stroke-width:1.0;"/><text fill="#000000" font-family="sans-serif" font-size="14" lengthAdjust="spacing" text-decoration="underline" textLength="171" x="636" y="55.9951">overdrachtID: LDT_UUID</text><line style="stroke:#181818;stroke-width:0.5;" x1="617" x2="1060" y1="63.2969" y2="63.2969"/><ellipse cx="627" cy="76.9453" fill="none" rx="3" ry="3" style="stroke:#038048;stroke-width:1.0;"/><text fill="#000000" font-family="sans-serif" font-size="14" lengthAdjust="spacing" textLength="419" x="636" y="80.292">verantwoordelijkZorgkantoor: LDT_ZorgkantoorCode {id}</text><text fill="#000000" font-family="sans-serif" font-size="14" lengthAdjust="spacing" textLength="217" x="636" y="96.5889">overdrachtdatum: LDT_Datum</text><text fill="#000000" font-family="sans-serif" font-size="14" lengthAdjust="spacing" textLength="189" x="636" y="112.8857">verhuisdatum: LDT_Datum</text></g><!--class Overdrachtspecificatie--><g id="elem_Overdrachtspecificatie"><rect codeLine="77" fill="#F1F1F1" height="113.1875" id="Overdrachtspecificatie" rx="2.5" ry="2.5" style="stroke:#181818;stroke-width:0.5;" width="488" x="845.5" y="188"/><ellipse cx="1002.75" cy="204" fill="#ADD1B2" rx="11" ry="11" style="stroke:#181818;stroke-width:1.0;"/><path d="M1005.0938,199.6719 C1004.1563,199.2344 1003.5625,199.0938 1002.6875,199.0938 C1000.0625,199.0938 998.0625,201.1719 998.0625,203.8906 L998.0625,205.0156 C998.0625,207.5938 1000.1719,209.4844 1003.0625,209.4844 C1004.2813,209.4844 1005.4375,209.1875 1006.1875,208.6406 C1006.7656,208.2344 1007.0938,207.7813 1007.0938,207.3906 C1007.0938,206.9375 1006.7031,206.5469 1006.2344,206.5469 C1006.0156,206.5469 1005.8125,206.625 1005.625,206.8125 C1005.1719,207.2969 1005.1719,207.2969 1004.9844,207.3906 C1004.5625,207.6563 1003.875,207.7813 1003.1094,207.7813 C1001.0625,207.7813 999.7656,206.6875 999.7656,204.9844 L999.7656,203.8906 C999.7656,202.1094 1001.0156,200.7969 1002.75,200.7969 C1003.3281,200.7969 1003.9375,200.9531 1004.4063,201.2031 C1004.8906,201.4844 1005.0625,201.7031 1005.1563,202.1094 C1005.2188,202.5156 1005.25,202.6406 1005.3906,202.7656 C1005.5313,202.9063 1005.7656,203.0156 1005.9844,203.0156 C1006.25,203.0156 1006.5156,202.875 1006.6875,202.6563 C1006.7969,202.5 1006.8281,202.3125 1006.8281,201.8906 L1006.8281,200.4688 C1006.8281,200.0313 1006.8125,199.9063 1006.7188,199.75 C1006.5625,199.4844 1006.2813,199.3438 1005.9844,199.3438 C1005.6875,199.3438 1005.4844,199.4375 1005.2656,199.75 L1005.0938,199.6719 Z " fill="#000000"/><text fill="#000000" font-family="sans-serif" font-size="14" lengthAdjust="spacing" textLength="165" x="1023.25" y="208.8467">Overdrachtspecificatie</text><line style="stroke:#181818;stroke-width:0.5;" x1="846.5" x2="1332.5" y1="220" y2="220"/><ellipse cx="856.5" cy="233.6484" fill="none" rx="3" ry="3" style="stroke:#038048;stroke-width:1.0;"/><text fill="#000000" font-family="sans-serif" font-size="14" lengthAdjust="spacing" text-decoration="underline" textLength="255" x="865.5" y="236.9951">overdrachtspecificatieID: LDT_UUID</text><line style="stroke:#181818;stroke-width:0.5;" x1="846.5" x2="1332.5" y1="244.2969" y2="244.2969"/><ellipse cx="856.5" cy="257.9453" fill="none" rx="3" ry="3" style="stroke:#038048;stroke-width:1.0;"/><text fill="#000000" font-family="sans-serif" font-size="14" lengthAdjust="spacing" textLength="248" x="865.5" y="261.292">leveringstatus: LDT_leveringstatus</text><text fill="#000000" font-family="sans-serif" font-size="14" lengthAdjust="spacing" textLength="462" x="865.5" y="277.5889">leveringstatusClassificatie: LDT_LeveringstatusClassificatie[0..1]</text><text fill="#000000" font-family="sans-serif" font-size="14" lengthAdjust="spacing" textLength="396" x="865.5" y="293.8857">oorspronkelijkeToewijzingEinddatum: LDT_Datum[0..1]</text></g><!--reverse link Bemiddeling to Client--><g id="link_Bemiddeling_Client"><path codeLine="85" d="M502.6372,321.2077 C460.3422,358.9397 420.067,394.871 376.239,433.97 " fill="none" id="Bemiddeling-backto-Client" style="stroke:#181818;stroke-width:1.0;"/><polygon fill="none" points="516.069,309.225,498.6429,316.7305,506.6314,325.685,516.069,309.225" style="stroke:#181818;stroke-width:1.0;"/><text fill="#000000" font-family="sans-serif" font-size="13" lengthAdjust="spacing" textLength="23" x="483.4801" y="329.6226">1..*</text><text fill="#000000" font-family="sans-serif" font-size="13" lengthAdjust="spacing" textLength="8" x="376.1527" y="422.7504">1</text></g><!--link Bemiddeling to ZorgInNatura--><g id="link_Bemiddeling_ZorgInNatura"><path codeLine="86" d="M744.407,309.07 C785.981,327.236 830.432,347.872 870.5,369 C876.451,372.138 866.6868,366.6986 872.7188,370.0186 " fill="none" id="Bemiddeling-to-ZorgInNatura" style="stroke:#181818;stroke-width:1.0;"/><polygon fill="none" points="888.488,378.698,875.6119,364.7622,869.8256,375.2751,888.488,378.698" style="stroke:#181818;stroke-width:1.0;"/><text fill="#000000" font-family="sans-serif" font-size="13" lengthAdjust="spacing" textLength="8" x="754.0869" y="329.4497">1</text><text fill="#000000" font-family="sans-serif" font-size="13" lengthAdjust="spacing" textLength="23" x="857.1868" y="370.4597">0..*</text></g><!--link Bemiddeling to Pgb--><g id="link_Bemiddeling_Pgb"><path codeLine="87" d="M612.452,309.225 C627.197,346.882 639.3492,377.9181 654.6422,416.9751 " fill="none" id="Bemiddeling-to-Pgb" style="stroke:#181818;stroke-width:1.0;"/><polygon fill="none" points="661.205,433.736,660.2291,414.7874,649.0552,419.1627,661.205,433.736" style="stroke:#181818;stroke-width:1.0;"/><text fill="#000000" font-family="sans-serif" font-size="13" lengthAdjust="spacing" textLength="8" x="606.8746" y="329.6226">1</text><text fill="#000000" font-family="sans-serif" font-size="13" lengthAdjust="spacing" textLength="23" x="634.2877" y="422.87">0..*</text></g><!--reverse link Overdracht to Bemiddeling--><g id="link_Overdracht_Bemiddeling"><path codeLine="88" d="M745.8028,130.6071 C719.3238,149.4901 704.194,160.28 676.899,179.745 " fill="none" id="Overdracht-backto-Bemiddeling" style="stroke:#181818;stroke-width:1.0;"/><polygon fill="none" points="760.458,120.156,742.3191,125.722,749.2865,135.4921,760.458,120.156" style="stroke:#181818;stroke-width:1.0;"/><text fill="#000000" font-family="sans-serif" font-size="13" lengthAdjust="spacing" textLength="24" x="724.9214" y="140.4394">0..1</text><text fill="#000000" font-family="sans-serif" font-size="13" lengthAdjust="spacing" textLength="8" x="678.2395" y="168.8898">1</text></g><!--link Overdracht to Overdrachtspecificatie--><g id="link_Overdracht_Overdrachtspecificatie"><path codeLine="89" d="M916.542,120.156 C946.763,141.708 966.6344,155.8795 996.8544,177.4285 " fill="none" id="Overdracht-to-Overdrachtspecificatie" style="stroke:#181818;stroke-width:1.0;"/><polygon fill="none" points="1011.51,187.879,1000.3379,172.5433,993.3709,182.3137,1011.51,187.879" style="stroke:#181818;stroke-width:1.0;"/><text fill="#000000" font-family="sans-serif" font-size="13" lengthAdjust="spacing" textLength="8" x="918.0286" y="140.4394">1</text><text fill="#000000" font-family="sans-serif" font-size="13" lengthAdjust="spacing" textLength="23" x="977.5989" y="177.1278">0..*</text></g><!--reverse link Overdrachtspecificatie to Pgb--><g id="link_Overdrachtspecificatie_Pgb"><path codeLine="90" d="M968.4524,309.8618 C931.8284,330.1878 906.63,345.293 870.5,369 C840.186,388.891 808.284,412.179 779.85,433.853 " fill="none" id="Overdrachtspecificatie-backto-Pgb" style="stroke:#181818;stroke-width:1.0;"/><polygon fill="none" points="984.191,301.127,965.5408,304.6156,971.364,315.108,984.191,301.127" style="stroke:#181818;stroke-width:1.0;"/><text fill="#000000" font-family="sans-serif" font-size="13" lengthAdjust="spacing" textLength="24" x="945.1608" y="321.4067">0..1</text><text fill="#000000" font-family="sans-serif" font-size="13" lengthAdjust="spacing" textLength="8" x="780.3501" y="422.9985">1</text></g><!--reverse link Overdrachtspecificatie to ZorgInNatura--><g id="link_Overdrachtspecificatie_ZorgInNatura"><path codeLine="91" d="M1089.5,319.064 C1089.5,339.162 1089.5,344.843 1089.5,368.838 " fill="none" id="Overdrachtspecificatie-backto-ZorgInNatura" style="stroke:#181818;stroke-width:1.0;"/><polygon fill="none" points="1089.5,301.064,1083.5,319.064,1095.5,319.064,1089.5,301.064" style="stroke:#181818;stroke-width:1.0;"/><text fill="#000000" font-family="sans-serif" font-size="13" lengthAdjust="spacing" textLength="24" x="1063.9625" y="321.3356">0..1</text><text fill="#000000" font-family="sans-serif" font-size="13" lengthAdjust="spacing" textLength="8" x="1081.2813" y="357.9384">1</text></g><!--link Client to Dossierhouder--><g id="link_Client_Dossierhouder"><path codeLine="92" d="M339.139,580.018 C363.163,619.667 383.1978,652.7307 405.4478,689.4497 " fill="none" id="Client-to-Dossierhouder" style="stroke:#181818;stroke-width:1.0;"/><polygon fill="none" points="414.776,704.844,410.5792,686.3403,400.3163,692.5591,414.776,704.844" style="stroke:#181818;stroke-width:1.0;"/><text fill="#000000" font-family="sans-serif" font-size="13" lengthAdjust="spacing" textLength="8" x="334.9171" y="599.776">1</text><text fill="#000000" font-family="sans-serif" font-size="13" lengthAdjust="spacing" textLength="23" x="386.2643" y="694.0885">0..*</text></g><!--link Client to CoordinatorZorgThuis--><g id="link_Client_CoordinatorZorgThuis"><path codeLine="93" d="M252.146,580.018 C228.279,619.667 208.3913,652.7036 186.2873,689.4226 " fill="none" id="Client-to-CoordinatorZorgThuis" style="stroke:#181818;stroke-width:1.0;"/><polygon fill="none" points="177.004,704.844,191.4278,692.517,181.1469,686.3282,177.004,704.844" style="stroke:#181818;stroke-width:1.0;"/><text fill="#000000" font-family="sans-serif" font-size="13" lengthAdjust="spacing" textLength="8" x="239.6326" y="599.776">1</text><text fill="#000000" font-family="sans-serif" font-size="13" lengthAdjust="spacing" textLength="23" x="156.6857" y="694.0885">0..*</text></g><!--SRC=[pLPHRzem47xdLrWy3e60RIzecZH87pAnhbff9ssQa8clmIMsaUt0HCj_hns7n0a4gccQnfDpzvrzttVdCrneG5YXUv2A2avvt4Bc5r0SIymspZf2WzvlPySQHcZO7xxjzjztX-zQm0dYPezMAqgmKcYIKE0QFMNepfFIMDDe7sNMC1YXQJ2Rtzs5GUQVpnrieRZpZ5CPWxm5kQ4Hy9GnaEY9adq6Im0U0FWIA77eQMd80CkKAYorSjvFyM8Y2Fpiztg3Nva_4eobd4Oc9RWNaZdSnBDkZDKBq1Wd3ZGpAy-nFz0T0wE4G69qgtDUbAv6ujja5tBYplP19UcEAG7cUYk4j7izhdu86Q-CnHWStZDOlcT2hL0XZp6F5S4wpVa7Tbb6dGgwefmSHUHo55BOF49-RNmIrxNOURv6CH8mPnkrrAQepTGtUSnskxNbcWlWFZot5h2bZpkh_2Mw7SgLXiHMgT8s7YAbUYD0cav_lVORhFHXNoQOQNuNy2LRk-OgaZmbhzTiQv3cCcWSvtnlYk_CBTOSizpr6Lz3tl4eSqeWm4Ek9QnM1SLlLQDt56Y64yWluvNxyDovLZmUWramLkn8loUxu_kcZ2nwLj1qqDkgiUoVctXHRvjrl6Zibh_N0l-eLWNHYRrRb6CjfEsVcHrRHmFp1APHYdeBUzMeDFe57Q2PMf5x89IY89SY9NOqLvCcllD_oFQhcHv4ucXvz229mjEOvvyFtdBpUeA72MlBUUGxaRPQGqGVtFlGJC57NPwk9ZhDdyYgBNzaVTF4vdFOkZQIZm7UFJ2QgBKKV9L91xFNt1_3ttzEsuDUxqqRVNZkTiswdV-pg47QgDjz_eZQ_GphFq5dWMRMjBpciDQ1TvGNMe7LTZbTfrP3-Ug7L7Cu2wtmolzXrPEftCmcqAdHym80]--></g></svg>