<svg xmlns="http://www.w3.org/2000/svg" xmlns:xlink="http://www.w3.org/1999/xlink" contentStyleType="text/css" height="1715px" preserveAspectRatio="none" style="width:1409px;height:1715px;background:#FFFFFF;" version="1.1" viewBox="0 0 1409 1715" width="1409px" zoomAndPan="magnify"><defs/><g><!--class Query--><g id="elem_Query"><rect codeLine="1" fill="#F1F1F1" height="129.4844" id="Query" rx="2.5" ry="2.5" style="stroke:#181818;stroke-width:0.5;" width="679.3516" x="677" y="7"/><ellipse cx="991.1523" cy="23" fill="#ADD1B2" rx="11" ry="11" style="stroke:#181818;stroke-width:1.0;"/><path d="M994.1211,28.6406 Q993.543,28.9375 992.9023,29.0781 Q992.2617,29.2344 991.5586,29.2344 Q989.0586,29.2344 987.7305,27.5938 Q986.418,25.9375 986.418,22.8125 Q986.418,19.6875 987.7305,18.0313 Q989.0586,16.375 991.5586,16.375 Q992.2617,16.375 992.9023,16.5313 Q993.5586,16.6875 994.1211,16.9844 L994.1211,19.7031 Q993.4961,19.125 992.9023,18.8594 Q992.3086,18.5781 991.6836,18.5781 Q990.3398,18.5781 989.6523,19.6563 Q988.9648,20.7188 988.9648,22.8125 Q988.9648,24.9063 989.6523,25.9844 Q990.3398,27.0469 991.6836,27.0469 Q992.3086,27.0469 992.9023,26.7813 Q993.4961,26.5 994.1211,25.9219 L994.1211,28.6406 Z " fill="#000000"/><text fill="#000000" font-family="sans-serif" font-size="14" lengthAdjust="spacing" textLength="42.5469" x="1011.6523" y="27.8467">Query</text><line style="stroke:#181818;stroke-width:0.5;" x1="678" x2="1355.3516" y1="39" y2="39"/><line style="stroke:#181818;stroke-width:0.5;" x1="678" x2="1355.3516" y1="47" y2="47"/><text fill="#000000" font-family="sans-serif" font-size="14" lengthAdjust="spacing" textLength="286.166" x="683" y="63.9951">client(where: ClientFilterInput): [Client!]!</text><text fill="#000000" font-family="sans-serif" font-size="14" lengthAdjust="spacing" textLength="428.9482" x="683" y="80.292">bemiddeling(where: BemiddelingFilterInput): [Bemiddeling!]!</text><text fill="#000000" font-family="sans-serif" font-size="14" lengthAdjust="spacing" textLength="667.3516" x="683" y="96.5889">bemiddelingspecificatie(where: BemiddelingspecificatieFilterInput): [Bemiddelingspecificatie!]!</text><text fill="#000000" font-family="sans-serif" font-size="14" lengthAdjust="spacing" textLength="401.0645" x="683" y="112.8857">overdracht(where: OverdrachtFilterInput): [Overdracht!]!</text><text fill="#000000" font-family="sans-serif" font-size="14" lengthAdjust="spacing" textLength="430.5752" x="683" y="129.1826">regiehouder(where: RegiehouderFilterInput): [Regiehouder!]!</text></g><!--class Client--><g id="elem_Client"><rect codeLine="15" fill="#F1F1F1" height="194.6719" id="Client" rx="2.5" ry="2.5" style="stroke:#181818;stroke-width:0.5;" width="321.2236" x="387" y="204"/><ellipse cx="523.0967" cy="220" fill="#ADD1B2" rx="11" ry="11" style="stroke:#181818;stroke-width:1.0;"/><path d="M526.0654,225.6406 Q525.4873,225.9375 524.8467,226.0781 Q524.2061,226.2344 523.5029,226.2344 Q521.0029,226.2344 519.6748,224.5938 Q518.3623,222.9375 518.3623,219.8125 Q518.3623,216.6875 519.6748,215.0313 Q521.0029,213.375 523.5029,213.375 Q524.2061,213.375 524.8467,213.5313 Q525.5029,213.6875 526.0654,213.9844 L526.0654,216.7031 Q525.4404,216.125 524.8467,215.8594 Q524.2529,215.5781 523.6279,215.5781 Q522.2842,215.5781 521.5967,216.6563 Q520.9092,217.7188 520.9092,219.8125 Q520.9092,221.9063 521.5967,222.9844 Q522.2842,224.0469 523.6279,224.0469 Q524.2529,224.0469 524.8467,223.7813 Q525.4404,223.5 526.0654,222.9219 L526.0654,225.6406 Z " fill="#000000"/><text fill="#000000" font-family="sans-serif" font-size="14" lengthAdjust="spacing" textLength="40.5303" x="543.5967" y="224.8467">Client</text><line style="stroke:#181818;stroke-width:0.5;" x1="388" x2="707.2236" y1="236" y2="236"/><text fill="#000000" font-family="sans-serif" font-size="14" lengthAdjust="spacing" textLength="205.9395" x="393" y="252.9951">bemiddeling: [Bemiddeling!]!</text><text fill="#000000" font-family="sans-serif" font-size="14" lengthAdjust="spacing" textLength="245.6699" x="393" y="269.292">contactpersoon: [Contactpersoon!]</text><text fill="#000000" font-family="sans-serif" font-size="14" lengthAdjust="spacing" textLength="309.2236" x="393" y="285.5889">contactgegevens: [ClientContactgegevens!]</text><text fill="#000000" font-family="sans-serif" font-size="14" lengthAdjust="spacing" textLength="103.5439" x="393" y="301.8857">clientID: UUID!</text><text fill="#000000" font-family="sans-serif" font-size="14" lengthAdjust="spacing" textLength="81.6143" x="393" y="318.1826">bsn: String!</text><text fill="#000000" font-family="sans-serif" font-size="14" lengthAdjust="spacing" textLength="133.3555" x="393" y="334.4795">leefeenheid: String</text><text fill="#000000" font-family="sans-serif" font-size="14" lengthAdjust="spacing" textLength="106.9961" x="393" y="350.7764">huisarts: String</text><text fill="#000000" font-family="sans-serif" font-size="14" lengthAdjust="spacing" textLength="186.6348" x="393" y="367.0732">communicatievorm: String</text><text fill="#000000" font-family="sans-serif" font-size="14" lengthAdjust="spacing" textLength="77.4854" x="393" y="383.3701">taal: String</text><line style="stroke:#181818;stroke-width:0.5;" x1="388" x2="707.2236" y1="390.6719" y2="390.6719"/></g><!--class Bemiddeling--><g id="elem_Bemiddeling"><rect codeLine="31" fill="#F1F1F1" height="194.6719" id="Bemiddeling" rx="2.5" ry="2.5" style="stroke:#181818;stroke-width:0.5;" width="371.2627" x="831" y="564"/><ellipse cx="968.5459" cy="580" fill="#ADD1B2" rx="11" ry="11" style="stroke:#181818;stroke-width:1.0;"/><path d="M971.5146,585.6406 Q970.9365,585.9375 970.2959,586.0781 Q969.6553,586.2344 968.9521,586.2344 Q966.4521,586.2344 965.124,584.5938 Q963.8115,582.9375 963.8115,579.8125 Q963.8115,576.6875 965.124,575.0313 Q966.4521,573.375 968.9521,573.375 Q969.6553,573.375 970.2959,573.5313 Q970.9521,573.6875 971.5146,573.9844 L971.5146,576.7031 Q970.8896,576.125 970.2959,575.8594 Q969.7021,575.5781 969.0771,575.5781 Q967.7334,575.5781 967.0459,576.6563 Q966.3584,577.7188 966.3584,579.8125 Q966.3584,581.9063 967.0459,582.9844 Q967.7334,584.0469 969.0771,584.0469 Q969.7021,584.0469 970.2959,583.7813 Q970.8896,583.5 971.5146,582.9219 L971.5146,585.6406 Z " fill="#000000"/><text fill="#000000" font-family="sans-serif" font-size="14" lengthAdjust="spacing" textLength="87.6709" x="989.0459" y="584.8467">Bemiddeling</text><line style="stroke:#181818;stroke-width:0.5;" x1="832" x2="1201.2627" y1="596" y2="596"/><text fill="#000000" font-family="sans-serif" font-size="14" lengthAdjust="spacing" textLength="359.2627" x="837" y="612.9951">bemiddelingspecificatie: [Bemiddelingspecificatie!]</text><text fill="#000000" font-family="sans-serif" font-size="14" lengthAdjust="spacing" textLength="200.3271" x="837" y="629.292">regiehouder: [Regiehouder!]</text><text fill="#000000" font-family="sans-serif" font-size="14" lengthAdjust="spacing" textLength="152.0449" x="837" y="645.5889">bemiddelingID: UUID!</text><text fill="#000000" font-family="sans-serif" font-size="14" lengthAdjust="spacing" textLength="93.7617" x="837" y="661.8857">client: Client!</text><text fill="#000000" font-family="sans-serif" font-size="14" lengthAdjust="spacing" textLength="147.8271" x="837" y="678.1826">wlzIndicatieID: UUID!</text><text fill="#000000" font-family="sans-serif" font-size="14" lengthAdjust="spacing" textLength="260.5039" x="837" y="694.4795">verantwoordelijkZorgkantoor: String!</text><text fill="#000000" font-family="sans-serif" font-size="14" lengthAdjust="spacing" textLength="296.7002" x="837" y="710.7764">verantwoordelijkheidIngangsdatum: Date!</text><text fill="#000000" font-family="sans-serif" font-size="14" lengthAdjust="spacing" textLength="266.0615" x="837" y="727.0732">verantwoordelijkheidEinddatum: Date</text><text fill="#000000" font-family="sans-serif" font-size="14" lengthAdjust="spacing" textLength="164.623" x="837" y="743.3701">overdracht: Overdracht</text><line style="stroke:#181818;stroke-width:0.5;" x1="832" x2="1201.2627" y1="750.6719" y2="750.6719"/></g><!--class Bemiddelingspecificatie--><g id="elem_Bemiddelingspecificatie"><rect codeLine="47" fill="#F1F1F1" height="325.0469" id="Bemiddelingspecificatie" rx="2.5" ry="2.5" style="stroke:#181818;stroke-width:0.5;" width="335.5586" x="602" y="932"/><ellipse cx="681.96" cy="948" fill="#ADD1B2" rx="11" ry="11" style="stroke:#181818;stroke-width:1.0;"/><path d="M684.9287,953.6406 Q684.3506,953.9375 683.71,954.0781 Q683.0693,954.2344 682.3662,954.2344 Q679.8662,954.2344 678.5381,952.5938 Q677.2256,950.9375 677.2256,947.8125 Q677.2256,944.6875 678.5381,943.0313 Q679.8662,941.375 682.3662,941.375 Q683.0693,941.375 683.71,941.5313 Q684.3662,941.6875 684.9287,941.9844 L684.9287,944.7031 Q684.3037,944.125 683.71,943.8594 Q683.1162,943.5781 682.4912,943.5781 Q681.1475,943.5781 680.46,944.6563 Q679.7725,945.7188 679.7725,947.8125 Q679.7725,949.9063 680.46,950.9844 Q681.1475,952.0469 682.4912,952.0469 Q683.1162,952.0469 683.71,951.7813 Q684.3037,951.5 684.9287,950.9219 L684.9287,953.6406 Z " fill="#000000"/><text fill="#000000" font-family="sans-serif" font-size="14" lengthAdjust="spacing" textLength="167.1387" x="702.46" y="952.8467">Bemiddelingspecificatie</text><line style="stroke:#181818;stroke-width:0.5;" x1="603" x2="936.5586" y1="964" y2="964"/><text fill="#000000" font-family="sans-serif" font-size="14" lengthAdjust="spacing" textLength="231.5127" x="608" y="980.9951">bemiddelingspecificatieID: UUID!</text><text fill="#000000" font-family="sans-serif" font-size="14" lengthAdjust="spacing" textLength="156.9053" x="608" y="997.292">leveringsvorm: String!</text><text fill="#000000" font-family="sans-serif" font-size="14" lengthAdjust="spacing" textLength="115.9854" x="608" y="1013.5889">zzpCode: String!</text><text fill="#000000" font-family="sans-serif" font-size="14" lengthAdjust="spacing" textLength="220.124" x="608" y="1029.8857">toewijzingIngangsdatum: Date!</text><text fill="#000000" font-family="sans-serif" font-size="14" lengthAdjust="spacing" textLength="114.5361" x="608" y="1046.1826">instelling: String</text><text fill="#000000" font-family="sans-serif" font-size="14" lengthAdjust="spacing" textLength="219.1396" x="608" y="1062.4795">uitvoerendZorgkantoor: String!</text><text fill="#000000" font-family="sans-serif" font-size="14" lengthAdjust="spacing" textLength="220.6641" x="608" y="1078.7764">vaststellingMoment: DateTime!</text><text fill="#000000" font-family="sans-serif" font-size="14" lengthAdjust="spacing" textLength="189.4854" x="608" y="1095.0732">toewijzingEinddatum: Date</text><text fill="#000000" font-family="sans-serif" font-size="14" lengthAdjust="spacing" textLength="107.666" x="608" y="1111.3701">percentage: Int</text><text fill="#000000" font-family="sans-serif" font-size="14" lengthAdjust="spacing" textLength="133.8818" x="608" y="1127.667">pgbPercentage: Int</text><text fill="#000000" font-family="sans-serif" font-size="14" lengthAdjust="spacing" textLength="108.1035" x="608" y="1143.9639">opname: String</text><text fill="#000000" font-family="sans-serif" font-size="14" lengthAdjust="spacing" textLength="162.415" x="608" y="1160.2607">redenIntrekking: String</text><text fill="#000000" font-family="sans-serif" font-size="14" lengthAdjust="spacing" textLength="108.6436" x="608" y="1176.5576">etmalen: String</text><text fill="#000000" font-family="sans-serif" font-size="14" lengthAdjust="spacing" textLength="203.0752" x="608" y="1192.8545">instellingBestemming: String</text><text fill="#000000" font-family="sans-serif" font-size="14" lengthAdjust="spacing" textLength="166.1885" x="608" y="1209.1514">soortToewijzing: String!</text><text fill="#000000" font-family="sans-serif" font-size="14" lengthAdjust="spacing" textLength="189.4033" x="608" y="1225.4482">bemiddeling: Bemiddeling!</text><text fill="#000000" font-family="sans-serif" font-size="14" lengthAdjust="spacing" textLength="323.5586" x="608" y="1241.7451">overdrachtspecificatie: Overdrachtspecificatie</text><line style="stroke:#181818;stroke-width:0.5;" x1="603" x2="936.5586" y1="1249.0469" y2="1249.0469"/></g><!--class Regiehouder--><g id="elem_Regiehouder"><rect codeLine="70" fill="#F1F1F1" height="145.7813" id="Regiehouder" rx="2.5" ry="2.5" style="stroke:#181818;stroke-width:0.5;" width="201.4033" x="1137" y="1022"/><ellipse cx="1188.8027" cy="1038" fill="#ADD1B2" rx="11" ry="11" style="stroke:#181818;stroke-width:1.0;"/><path d="M1191.7715,1043.6406 Q1191.1934,1043.9375 1190.5527,1044.0781 Q1189.9121,1044.2344 1189.209,1044.2344 Q1186.709,1044.2344 1185.3809,1042.5938 Q1184.0684,1040.9375 1184.0684,1037.8125 Q1184.0684,1034.6875 1185.3809,1033.0313 Q1186.709,1031.375 1189.209,1031.375 Q1189.9121,1031.375 1190.5527,1031.5313 Q1191.209,1031.6875 1191.7715,1031.9844 L1191.7715,1034.7031 Q1191.1465,1034.125 1190.5527,1033.8594 Q1189.959,1033.5781 1189.334,1033.5781 Q1187.9902,1033.5781 1187.3027,1034.6563 Q1186.6152,1035.7188 1186.6152,1037.8125 Q1186.6152,1039.9063 1187.3027,1040.9844 Q1187.9902,1042.0469 1189.334,1042.0469 Q1189.959,1042.0469 1190.5527,1041.7813 Q1191.1465,1041.5 1191.7715,1040.9219 L1191.7715,1043.6406 Z " fill="#000000"/><text fill="#000000" font-family="sans-serif" font-size="14" lengthAdjust="spacing" textLength="89.2979" x="1209.3027" y="1042.8467">Regiehouder</text><line style="stroke:#181818;stroke-width:0.5;" x1="1138" x2="1337.4033" y1="1054" y2="1054"/><text fill="#000000" font-family="sans-serif" font-size="14" lengthAdjust="spacing" textLength="150.418" x="1143" y="1070.9951">regiehouderID: UUID!</text><text fill="#000000" font-family="sans-serif" font-size="14" lengthAdjust="spacing" textLength="120.1484" x="1143" y="1087.292">instelling: String!</text><text fill="#000000" font-family="sans-serif" font-size="14" lengthAdjust="spacing" textLength="148.9893" x="1143" y="1103.5889">ingangsdatum: Date!</text><text fill="#000000" font-family="sans-serif" font-size="14" lengthAdjust="spacing" textLength="118.3574" x="1143" y="1119.8857">einddatum: Date</text><text fill="#000000" font-family="sans-serif" font-size="14" lengthAdjust="spacing" textLength="110.5303" x="1143" y="1136.1826">regierol: String!</text><text fill="#000000" font-family="sans-serif" font-size="14" lengthAdjust="spacing" textLength="189.4033" x="1143" y="1152.4795">bemiddeling: Bemiddeling!</text><line style="stroke:#181818;stroke-width:0.5;" x1="1138" x2="1337.4033" y1="1159.7813" y2="1159.7813"/></g><!--class Overdracht--><g id="elem_Overdracht"><rect codeLine="81" fill="#F1F1F1" height="162.0781" id="Overdracht" rx="2.5" ry="2.5" style="stroke:#181818;stroke-width:0.5;" width="352.0947" x="828.5" y="1546"/><ellipse cx="960.8198" cy="1562" fill="#ADD1B2" rx="11" ry="11" style="stroke:#181818;stroke-width:1.0;"/><path d="M963.7886,1567.6406 Q963.2104,1567.9375 962.5698,1568.0781 Q961.9292,1568.2344 961.2261,1568.2344 Q958.7261,1568.2344 957.3979,1566.5938 Q956.0854,1564.9375 956.0854,1561.8125 Q956.0854,1558.6875 957.3979,1557.0313 Q958.7261,1555.375 961.2261,1555.375 Q961.9292,1555.375 962.5698,1555.5313 Q963.2261,1555.6875 963.7886,1555.9844 L963.7886,1558.7031 Q963.1636,1558.125 962.5698,1557.8594 Q961.9761,1557.5781 961.3511,1557.5781 Q960.0073,1557.5781 959.3198,1558.6563 Q958.6323,1559.7188 958.6323,1561.8125 Q958.6323,1563.9063 959.3198,1564.9844 Q960.0073,1566.0469 961.3511,1566.0469 Q961.9761,1566.0469 962.5698,1565.7813 Q963.1636,1565.5 963.7886,1564.9219 L963.7886,1567.6406 Z " fill="#000000"/><text fill="#000000" font-family="sans-serif" font-size="14" lengthAdjust="spacing" textLength="78.9551" x="981.3198" y="1566.8467">Overdracht</text><line style="stroke:#181818;stroke-width:0.5;" x1="829.5" x2="1179.5947" y1="1578" y2="1578"/><text fill="#000000" font-family="sans-serif" font-size="14" lengthAdjust="spacing" textLength="141.5928" x="834.5" y="1594.9951">overdrachtID: UUID!</text><text fill="#000000" font-family="sans-serif" font-size="14" lengthAdjust="spacing" textLength="260.5039" x="834.5" y="1611.292">verantwoordelijkZorgkantoor: String!</text><text fill="#000000" font-family="sans-serif" font-size="14" lengthAdjust="spacing" textLength="172.1016" x="834.5" y="1627.5889">overdrachtDatum: Date!</text><text fill="#000000" font-family="sans-serif" font-size="14" lengthAdjust="spacing" textLength="147.1846" x="834.5" y="1643.8857">verhuisDatum: Date!</text><text fill="#000000" font-family="sans-serif" font-size="14" lengthAdjust="spacing" textLength="220.6641" x="834.5" y="1660.1826">vaststellingMoment: DateTime!</text><text fill="#000000" font-family="sans-serif" font-size="14" lengthAdjust="spacing" textLength="340.0947" x="834.5" y="1676.4795">overdrachtspecificatie: [Overdrachtspecificatie!]</text><text fill="#000000" font-family="sans-serif" font-size="14" lengthAdjust="spacing" textLength="189.4033" x="834.5" y="1692.7764">bemiddeling: Bemiddeling!</text><line style="stroke:#181818;stroke-width:0.5;" x1="829.5" x2="1179.5947" y1="1700.0781" y2="1700.0781"/></g><!--class Contactpersoon--><g id="elem_Contactpersoon"><rect codeLine="106" fill="#F1F1F1" height="390.2344" id="Contactpersoon" rx="2.5" ry="2.5" style="stroke:#181818;stroke-width:0.5;" width="391.7158" x="7" y="466"/><ellipse cx="143.0967" cy="482" fill="#ADD1B2" rx="11" ry="11" style="stroke:#181818;stroke-width:1.0;"/><path d="M146.0654,487.6406 Q145.4873,487.9375 144.8467,488.0781 Q144.2061,488.2344 143.5029,488.2344 Q141.0029,488.2344 139.6748,486.5938 Q138.3623,484.9375 138.3623,481.8125 Q138.3623,478.6875 139.6748,477.0313 Q141.0029,475.375 143.5029,475.375 Q144.2061,475.375 144.8467,475.5313 Q145.5029,475.6875 146.0654,475.9844 L146.0654,478.7031 Q145.4404,478.125 144.8467,477.8594 Q144.2529,477.5781 143.6279,477.5781 Q142.2842,477.5781 141.5967,478.6563 Q140.9092,479.7188 140.9092,481.8125 Q140.9092,483.9063 141.5967,484.9844 Q142.2842,486.0469 143.6279,486.0469 Q144.2529,486.0469 144.8467,485.7813 Q145.4404,485.5 146.0654,484.9219 L146.0654,487.6406 Z " fill="#000000"/><text fill="#000000" font-family="sans-serif" font-size="14" lengthAdjust="spacing" textLength="111.0225" x="163.5967" y="486.8467">Contactpersoon</text><line style="stroke:#181818;stroke-width:0.5;" x1="8" x2="397.7158" y1="498" y2="498"/><text fill="#000000" font-family="sans-serif" font-size="14" lengthAdjust="spacing" textLength="379.7158" x="13" y="514.9951">contactgegevens: [ContactpersoonContactgegevens!]</text><text fill="#000000" font-family="sans-serif" font-size="14" lengthAdjust="spacing" textLength="174.0361" x="13" y="531.292">contactpersoonID: UUID!</text><text fill="#000000" font-family="sans-serif" font-size="14" lengthAdjust="spacing" textLength="160.7813" x="13" y="547.5889">relatienummer: String!</text><text fill="#000000" font-family="sans-serif" font-size="14" lengthAdjust="spacing" textLength="89.1064" x="13" y="563.8857">volgorde: Int</text><text fill="#000000" font-family="sans-serif" font-size="14" lengthAdjust="spacing" textLength="141.0322" x="13" y="580.1826">soortRelatie: String!</text><text fill="#000000" font-family="sans-serif" font-size="14" lengthAdjust="spacing" textLength="69.1592" x="13" y="596.4795">rol: String</text><text fill="#000000" font-family="sans-serif" font-size="14" lengthAdjust="spacing" textLength="95.7783" x="13" y="612.7764">relatie: String</text><text fill="#000000" font-family="sans-serif" font-size="14" lengthAdjust="spacing" textLength="157.2334" x="13" y="629.0732">geslachtsnaam: String</text><text fill="#000000" font-family="sans-serif" font-size="14" lengthAdjust="spacing" textLength="244.5146" x="13" y="645.3701">voorvoegselGeslachtsnaam: String</text><text fill="#000000" font-family="sans-serif" font-size="14" lengthAdjust="spacing" textLength="142.5703" x="13" y="661.667">partnernaam: String</text><text fill="#000000" font-family="sans-serif" font-size="14" lengthAdjust="spacing" textLength="227.4453" x="13" y="677.9639">voorvoegselPartnernaam: String</text><text fill="#000000" font-family="sans-serif" font-size="14" lengthAdjust="spacing" textLength="130.6963" x="13" y="694.2607">voornamen: String</text><text fill="#000000" font-family="sans-serif" font-size="14" lengthAdjust="spacing" textLength="127.2646" x="13" y="710.5576">voorletters: String</text><text fill="#000000" font-family="sans-serif" font-size="14" lengthAdjust="spacing" textLength="122.4385" x="13" y="726.8545">roepnaam: String</text><text fill="#000000" font-family="sans-serif" font-size="14" lengthAdjust="spacing" textLength="143.6299" x="13" y="743.1514">naamgebruik: String</text><text fill="#000000" font-family="sans-serif" font-size="14" lengthAdjust="spacing" textLength="110.2705" x="13" y="759.4482">geslacht: String</text><text fill="#000000" font-family="sans-serif" font-size="14" lengthAdjust="spacing" textLength="151.4707" x="13" y="775.7451">geboortedatum: Date</text><text fill="#000000" font-family="sans-serif" font-size="14" lengthAdjust="spacing" textLength="212.8027" x="13" y="792.042">geboortedatumgebruik: String</text><text fill="#000000" font-family="sans-serif" font-size="14" lengthAdjust="spacing" textLength="148.9893" x="13" y="808.3389">ingangsdatum: Date!</text><text fill="#000000" font-family="sans-serif" font-size="14" lengthAdjust="spacing" textLength="118.3574" x="13" y="824.6357">einddatum: Date</text><text fill="#000000" font-family="sans-serif" font-size="14" lengthAdjust="spacing" textLength="93.7617" x="13" y="840.9326">client: Client!</text><line style="stroke:#181818;stroke-width:0.5;" x1="8" x2="397.7158" y1="848.2344" y2="848.2344"/></g><!--class ClientContactgegevens--><g id="elem_ClientContactgegevens"><rect codeLine="133" fill="#F1F1F1" height="341.3438" id="ClientContactgegevens" rx="2.5" ry="2.5" style="stroke:#181818;stroke-width:0.5;" width="238.0781" x="449.5" y="490.5"/><ellipse cx="483.8562" cy="506.5" fill="#ADD1B2" rx="11" ry="11" style="stroke:#181818;stroke-width:1.0;"/><path d="M486.8249,512.1406 Q486.2468,512.4375 485.6062,512.5781 Q484.9655,512.7344 484.2624,512.7344 Q481.7624,512.7344 480.4343,511.0938 Q479.1218,509.4375 479.1218,506.3125 Q479.1218,503.1875 480.4343,501.5313 Q481.7624,499.875 484.2624,499.875 Q484.9655,499.875 485.6062,500.0313 Q486.2624,500.1875 486.8249,500.4844 L486.8249,503.2031 Q486.1999,502.625 485.6062,502.3594 Q485.0124,502.0781 484.3874,502.0781 Q483.0437,502.0781 482.3562,503.1563 Q481.6687,504.2188 481.6687,506.3125 Q481.6687,508.4063 482.3562,509.4844 Q483.0437,510.5469 484.3874,510.5469 Q485.0124,510.5469 485.6062,510.2813 Q486.1999,510 486.8249,509.4219 L486.8249,512.1406 Z " fill="#000000"/><text fill="#000000" font-family="sans-serif" font-size="14" lengthAdjust="spacing" textLength="163.0645" x="502.1575" y="511.3467">ClientContactgegevens</text><line style="stroke:#181818;stroke-width:0.5;" x1="450.5" x2="686.5781" y1="522.5" y2="522.5"/><text fill="#000000" font-family="sans-serif" font-size="14" lengthAdjust="spacing" textLength="226.0781" x="455.5" y="539.4951">clientContactgegevensID: UUID!</text><text fill="#000000" font-family="sans-serif" font-size="14" lengthAdjust="spacing" textLength="93.7617" x="455.5" y="555.792">client: Client!</text><text fill="#000000" font-family="sans-serif" font-size="14" lengthAdjust="spacing" textLength="131.3594" x="455.5" y="572.0889">adressoort: String!</text><text fill="#000000" font-family="sans-serif" font-size="14" lengthAdjust="spacing" textLength="131.8037" x="455.5" y="588.3857">straatnaam: String</text><text fill="#000000" font-family="sans-serif" font-size="14" lengthAdjust="spacing" textLength="115.9785" x="455.5" y="604.6826">huisnummer: Int</text><text fill="#000000" font-family="sans-serif" font-size="14" lengthAdjust="spacing" textLength="117.7285" x="455.5" y="620.9795">huisletter: String</text><text fill="#000000" font-family="sans-serif" font-size="14" lengthAdjust="spacing" textLength="217.9365" x="455.5" y="637.2764">huisnummertoevoeging: String</text><text fill="#000000" font-family="sans-serif" font-size="14" lengthAdjust="spacing" textLength="114.9463" x="455.5" y="653.5732">postcode: String</text><text fill="#000000" font-family="sans-serif" font-size="14" lengthAdjust="spacing" textLength="133.335" x="455.5" y="669.8701">plaatsnaam: String</text><text fill="#000000" font-family="sans-serif" font-size="14" lengthAdjust="spacing" textLength="81.1768" x="455.5" y="686.167">land: String</text><text fill="#000000" font-family="sans-serif" font-size="14" lengthAdjust="spacing" textLength="208.1406" x="455.5" y="702.4639">aanduidingWoonadres: String</text><text fill="#000000" font-family="sans-serif" font-size="14" lengthAdjust="spacing" textLength="128.6865" x="455.5" y="718.7607">emailadres: String</text><text fill="#000000" font-family="sans-serif" font-size="14" lengthAdjust="spacing" textLength="185.6914" x="455.5" y="735.0576">telefoonnummer01: String</text><text fill="#000000" font-family="sans-serif" font-size="14" lengthAdjust="spacing" textLength="158.3818" x="455.5" y="751.3545">landnummer01: String</text><text fill="#000000" font-family="sans-serif" font-size="14" lengthAdjust="spacing" textLength="185.6914" x="455.5" y="767.6514">telefoonnummer02: String</text><text fill="#000000" font-family="sans-serif" font-size="14" lengthAdjust="spacing" textLength="158.3818" x="455.5" y="783.9482">landnummer02: String</text><text fill="#000000" font-family="sans-serif" font-size="14" lengthAdjust="spacing" textLength="148.9893" x="455.5" y="800.2451">ingangsdatum: Date!</text><text fill="#000000" font-family="sans-serif" font-size="14" lengthAdjust="spacing" textLength="118.3574" x="455.5" y="816.542">einddatum: Date</text><line style="stroke:#181818;stroke-width:0.5;" x1="450.5" x2="686.5781" y1="823.8438" y2="823.8438"/></g><!--class Overdrachtspecificatie--><g id="elem_Overdrachtspecificatie"><rect codeLine="94" fill="#F1F1F1" height="145.7813" id="Overdrachtspecificatie" rx="2.5" ry="2.5" style="stroke:#181818;stroke-width:0.5;" width="360.3389" x="583.5" y="1333"/><ellipse cx="680.208" cy="1349" fill="#ADD1B2" rx="11" ry="11" style="stroke:#181818;stroke-width:1.0;"/><path d="M683.1768,1354.6406 Q682.5986,1354.9375 681.958,1355.0781 Q681.3174,1355.2344 680.6143,1355.2344 Q678.1143,1355.2344 676.7861,1353.5938 Q675.4736,1351.9375 675.4736,1348.8125 Q675.4736,1345.6875 676.7861,1344.0313 Q678.1143,1342.375 680.6143,1342.375 Q681.3174,1342.375 681.958,1342.5313 Q682.6143,1342.6875 683.1768,1342.9844 L683.1768,1345.7031 Q682.5518,1345.125 681.958,1344.8594 Q681.3643,1344.5781 680.7393,1344.5781 Q679.3955,1344.5781 678.708,1345.6563 Q678.0205,1346.7188 678.0205,1348.8125 Q678.0205,1350.9063 678.708,1351.9844 Q679.3955,1353.0469 680.7393,1353.0469 Q681.3643,1353.0469 681.958,1352.7813 Q682.5518,1352.5 683.1768,1351.9219 L683.1768,1354.6406 Z " fill="#000000"/><text fill="#000000" font-family="sans-serif" font-size="14" lengthAdjust="spacing" textLength="158.4229" x="700.708" y="1353.8467">Overdrachtspecificatie</text><line style="stroke:#181818;stroke-width:0.5;" x1="584.5" x2="942.8389" y1="1365" y2="1365"/><text fill="#000000" font-family="sans-serif" font-size="14" lengthAdjust="spacing" textLength="221.0605" x="589.5" y="1381.9951">overdrachtspecificatieID: UUID!</text><text fill="#000000" font-family="sans-serif" font-size="14" lengthAdjust="spacing" textLength="163.6797" x="589.5" y="1398.292">leveringsstatus: String!</text><text fill="#000000" font-family="sans-serif" font-size="14" lengthAdjust="spacing" textLength="241.876" x="589.5" y="1414.5889">leveringsstatusClassificatie: String</text><text fill="#000000" font-family="sans-serif" font-size="14" lengthAdjust="spacing" textLength="299.9199" x="589.5" y="1430.8857">oorspronkelijkeToewijzingEinddatum: Date</text><text fill="#000000" font-family="sans-serif" font-size="14" lengthAdjust="spacing" textLength="170.2354" x="589.5" y="1447.1826">overdracht: Overdracht!</text><text fill="#000000" font-family="sans-serif" font-size="14" lengthAdjust="spacing" textLength="348.3389" x="589.5" y="1463.4795">bemiddelingspecificatie: Bemiddelingspecificatie!</text><line style="stroke:#181818;stroke-width:0.5;" x1="584.5" x2="942.8389" y1="1470.7813" y2="1470.7813"/></g><!--class ContactpersoonContactgegevens--><g id="elem_ContactpersoonContactgegevens"><rect codeLine="156" fill="#F1F1F1" height="341.3438" id="ContactpersoonContactgegevens" rx="2.5" ry="2.5" style="stroke:#181818;stroke-width:0.5;" width="308.5703" x="48.5" y="924"/><ellipse cx="82.8562" cy="940" fill="#ADD1B2" rx="11" ry="11" style="stroke:#181818;stroke-width:1.0;"/><path d="M85.8249,945.6406 Q85.2468,945.9375 84.6062,946.0781 Q83.9655,946.2344 83.2624,946.2344 Q80.7624,946.2344 79.4343,944.5938 Q78.1218,942.9375 78.1218,939.8125 Q78.1218,936.6875 79.4343,935.0313 Q80.7624,933.375 83.2624,933.375 Q83.9655,933.375 84.6062,933.5313 Q85.2624,933.6875 85.8249,933.9844 L85.8249,936.7031 Q85.1999,936.125 84.6062,935.8594 Q84.0124,935.5781 83.3874,935.5781 Q82.0437,935.5781 81.3562,936.6563 Q80.6687,937.7188 80.6687,939.8125 Q80.6687,941.9063 81.3562,942.9844 Q82.0437,944.0469 83.3874,944.0469 Q84.0124,944.0469 84.6062,943.7813 Q85.1999,943.5 85.8249,942.9219 L85.8249,945.6406 Z " fill="#000000"/><text fill="#000000" font-family="sans-serif" font-size="14" lengthAdjust="spacing" textLength="233.5566" x="101.1575" y="944.8467">ContactpersoonContactgegevens</text><line style="stroke:#181818;stroke-width:0.5;" x1="49.5" x2="356.0703" y1="956" y2="956"/><text fill="#000000" font-family="sans-serif" font-size="14" lengthAdjust="spacing" textLength="296.5703" x="54.5" y="972.9951">contactpersoonContactgegevensID: UUID!</text><text fill="#000000" font-family="sans-serif" font-size="14" lengthAdjust="spacing" textLength="234.7461" x="54.5" y="989.292">contactpersoon: Contactpersoon!</text><text fill="#000000" font-family="sans-serif" font-size="14" lengthAdjust="spacing" textLength="131.3594" x="54.5" y="1005.5889">adressoort: String!</text><text fill="#000000" font-family="sans-serif" font-size="14" lengthAdjust="spacing" textLength="131.8037" x="54.5" y="1021.8857">straatnaam: String</text><text fill="#000000" font-family="sans-serif" font-size="14" lengthAdjust="spacing" textLength="115.9785" x="54.5" y="1038.1826">huisnummer: Int</text><text fill="#000000" font-family="sans-serif" font-size="14" lengthAdjust="spacing" textLength="117.7285" x="54.5" y="1054.4795">huisletter: String</text><text fill="#000000" font-family="sans-serif" font-size="14" lengthAdjust="spacing" textLength="217.9365" x="54.5" y="1070.7764">huisnummertoevoeging: String</text><text fill="#000000" font-family="sans-serif" font-size="14" lengthAdjust="spacing" textLength="114.9463" x="54.5" y="1087.0732">postcode: String</text><text fill="#000000" font-family="sans-serif" font-size="14" lengthAdjust="spacing" textLength="133.335" x="54.5" y="1103.3701">plaatsnaam: String</text><text fill="#000000" font-family="sans-serif" font-size="14" lengthAdjust="spacing" textLength="81.1768" x="54.5" y="1119.667">land: String</text><text fill="#000000" font-family="sans-serif" font-size="14" lengthAdjust="spacing" textLength="208.1406" x="54.5" y="1135.9639">aanduidingWoonadres: String</text><text fill="#000000" font-family="sans-serif" font-size="14" lengthAdjust="spacing" textLength="128.6865" x="54.5" y="1152.2607">emailadres: String</text><text fill="#000000" font-family="sans-serif" font-size="14" lengthAdjust="spacing" textLength="185.6914" x="54.5" y="1168.5576">telefoonnummer01: String</text><text fill="#000000" font-family="sans-serif" font-size="14" lengthAdjust="spacing" textLength="158.3818" x="54.5" y="1184.8545">landnummer01: String</text><text fill="#000000" font-family="sans-serif" font-size="14" lengthAdjust="spacing" textLength="185.6914" x="54.5" y="1201.1514">telefoonnummer02: String</text><text fill="#000000" font-family="sans-serif" font-size="14" lengthAdjust="spacing" textLength="158.3818" x="54.5" y="1217.4482">landnummer02: String</text><text fill="#000000" font-family="sans-serif" font-size="14" lengthAdjust="spacing" textLength="148.9893" x="54.5" y="1233.7451">ingangsdatum: Date!</text><text fill="#000000" font-family="sans-serif" font-size="14" lengthAdjust="spacing" textLength="118.3574" x="54.5" y="1250.042">einddatum: Date</text><line style="stroke:#181818;stroke-width:0.5;" x1="49.5" x2="356.0703" y1="1257.3438" y2="1257.3438"/></g><!--link Query to Client--><g id="link_Query_Client"><path codeLine="9" d="M675.5,58.5 C607.76,58.5 577.0955,127.7383 562.0455,194.1783 " fill="none" id="Query-to-Client" style="stroke:#181818;stroke-width:1.0;"/><polygon fill="#181818" points="560.72,200.03,566.6095,192.1361,561.8246,195.1535,558.8071,190.3687,560.72,200.03" style="stroke:#181818;stroke-width:1.0;"/></g><!--link Query to Bemiddeling--><g id="link_Query_Bemiddeling"><path codeLine="10" d="M1357.5,75.5 C1386.17,75.5 1371.72,115.7 1356.5,140 C1325.05,190.2 1278.98,157.72 1237.5,200 C1137.14,302.3 1077.1676,453.2456 1045.2976,554.7356 " fill="none" id="Query-to-Bemiddeling" style="stroke:#181818;stroke-width:1.0;"/><polygon fill="#181818" points="1043.5,560.46,1050.0126,553.0718,1044.998,555.6897,1042.3801,550.675,1043.5,560.46" style="stroke:#181818;stroke-width:1.0;"/></g><!--link Query to Bemiddelingspecificatie--><g id="link_Query_Bemiddelingspecificatie"><path codeLine="11" d="M675.5,91.5 C653.94,91.5 668.3,120.06 676.5,140 C690.49,174.02 719.18,166.12 733.5,200 C787.12,326.82 783.9136,700.8431 776.7636,922.3131 " fill="none" id="Query-to-Bemiddelingspecificatie" style="stroke:#181818;stroke-width:1.0;"/><polygon fill="#181818" points="776.57,928.31,780.8583,919.4438,776.7313,923.3126,772.8625,919.1856,776.57,928.31" style="stroke:#181818;stroke-width:1.0;"/></g><!--link Query to Regiehouder--><g id="link_Query_Regiehouder"><path codeLine="12" d="M1357.5,124.5 C1402.47,124.5 1291.4087,784.6888 1251.7887,1012.3588 " fill="none" id="Query-to-Regiehouder" style="stroke:#181818;stroke-width:1.0;"/><polygon fill="#181818" points="1250.76,1018.27,1256.2438,1010.089,1251.6172,1013.344,1248.3623,1008.7175,1250.76,1018.27" style="stroke:#181818;stroke-width:1.0;"/></g><!--link Query to Overdracht--><g id="link_Query_Overdracht"><path codeLine="13" d="M1357.5,107.5 C1389.24,107.5 1399.5,200.83 1399.5,660 C1399.5,660 1399.5,660 1399.5,1095.5 C1399.5,1174.25 1401.01,1199.75 1363.5,1269 C1303.95,1378.94 1204.406,1473.1579 1123.546,1538.5279 " fill="none" id="Query-to-Overdracht" style="stroke:#181818;stroke-width:1.0;"/><polygon fill="#181818" points="1118.88,1542.3,1128.3937,1539.7525,1122.7683,1539.1566,1123.3642,1533.5312,1118.88,1542.3" style="stroke:#181818;stroke-width:1.0;"/></g><!--link Client to Bemiddeling--><g id="link_Client_Bemiddeling"><path codeLine="27" d="M709.5,248 C864.6,248 948.792,432.3484 988.032,554.2884 " fill="none" id="Client-to-Bemiddeling" style="stroke:#181818;stroke-width:1.0;"/><polygon fill="#181818" points="989.87,560,990.9208,550.2074,988.3384,555.2404,983.3053,552.658,989.87,560" style="stroke:#181818;stroke-width:1.0;"/></g><!--link Client to Contactpersoon--><g id="link_Client_Contactpersoon"><path codeLine="28" d="M385.5,264 C288.56,264 244.0845,357.1369 222.5645,456.1369 " fill="none" id="Client-to-Contactpersoon" style="stroke:#181818;stroke-width:1.0;"/><polygon fill="#181818" points="221.29,462,227.1104,454.055,222.3521,457.1141,219.293,452.3557,221.29,462" style="stroke:#181818;stroke-width:1.0;"/></g><!--link Contactpersoon to Client--><g id="link_Contactpersoon_Client"><path codeLine="130" d="M399.5,835 C441.03,835 408.8,500.84 423.5,462 C431.4,441.13 439.6017,425.708 452.5917,406.888 " fill="none" id="Contactpersoon-to-Client" style="stroke:#181818;stroke-width:1.0;"/><polygon fill="#181818" points="456,401.95,447.5956,407.0847,453.1598,406.065,454.1795,411.6291,456,401.95" style="stroke:#181818;stroke-width:1.0;"/></g><!--link Client to ClientContactgegevens--><g id="link_Client_ClientContactgegevens"><path codeLine="29" d="M709.5,280 C763.72,280 722.06,349.5 708.5,402 C701.14,430.5 692.5272,453.8275 679.6472,481.2975 " fill="none" id="Client-to-ClientContactgegevens" style="stroke:#181818;stroke-width:1.0;"/><polygon fill="#181818" points="677.1,486.73,684.5424,480.2794,679.2226,482.2029,677.2991,476.8832,677.1,486.73" style="stroke:#181818;stroke-width:1.0;"/></g><!--link ClientContactgegevens to Client--><g id="link_ClientContactgegevens_Client"><path codeLine="154" d="M448.5,550 C414.95,550 448.1126,475.975 485.7726,407.065 " fill="none" id="ClientContactgegevens-to-Client" style="stroke:#181818;stroke-width:1.0;"/><polygon fill="#181818" points="488.65,401.8,480.8239,407.7793,486.2522,406.1875,487.8439,411.6158,488.65,401.8" style="stroke:#181818;stroke-width:1.0;"/></g><!--link Bemiddeling to Bemiddelingspecificatie--><g id="link_Bemiddeling_Bemiddelingspecificatie"><path codeLine="43" d="M829.5,608 C825.37,608 804.7704,781.4587 788.7104,922.1587 " fill="none" id="Bemiddeling-to-Bemiddelingspecificatie" style="stroke:#181818;stroke-width:1.0;"/><polygon fill="#181818" points="788.03,928.12,793.0249,919.6317,788.597,923.1523,785.0765,918.7244,788.03,928.12" style="stroke:#181818;stroke-width:1.0;"/></g><!--link Bemiddelingspecificatie to Bemiddeling--><g id="link_Bemiddelingspecificatie_Bemiddeling"><path codeLine="67" d="M938.5,1220.5 C972.18,1220.5 973.82,953.36 978.5,920 C985.82,867.77 993.4666,815.5746 1000.5866,767.7446 " fill="none" id="Bemiddelingspecificatie-to-Bemiddeling" style="stroke:#181818;stroke-width:1.0;"/><polygon fill="#181818" points="1001.47,761.81,996.1885,770.123,1000.7338,766.7555,1004.1013,771.3009,1001.47,761.81" style="stroke:#181818;stroke-width:1.0;"/></g><!--link Bemiddeling to Regiehouder--><g id="link_Bemiddeling_Regiehouder"><path codeLine="44" d="M1203.5,624 C1223.01,624 1232.1727,879.3521 1235.6527,1012.0721 " fill="none" id="Bemiddeling-to-Regiehouder" style="stroke:#181818;stroke-width:1.0;"/><polygon fill="#181818" points="1235.81,1018.07,1239.5727,1008.9682,1235.6789,1013.0717,1231.5755,1009.1779,1235.81,1018.07" style="stroke:#181818;stroke-width:1.0;"/></g><!--link Regiehouder to Bemiddeling--><g id="link_Regiehouder_Bemiddeling"><path codeLine="79" d="M1135.5,1147.5 C1084.38,1147.5 1113.32,969.73 1101.5,920 C1088.91,867.01 1072.3483,814.9745 1055.8083,767.6145 " fill="none" id="Regiehouder-to-Bemiddeling" style="stroke:#181818;stroke-width:1.0;"/><polygon fill="#181818" points="1053.83,761.95,1053.0211,771.7656,1055.4786,766.6704,1060.5737,769.1279,1053.83,761.95" style="stroke:#181818;stroke-width:1.0;"/></g><!--link Bemiddeling to Overdracht--><g id="link_Bemiddeling_Overdracht"><path codeLine="45" d="M1203.5,738 C1214.18,738 1205.47,751.75 1202.5,762 C1179.94,839.83 1137.98,843.41 1111.5,920 C1029.05,1158.51 1070.93,1232.9 1030.5,1482 C1027.33,1501.56 1024.7281,1516.664 1021.1881,1536.424 " fill="none" id="Bemiddeling-to-Overdracht" style="stroke:#181818;stroke-width:1.0;"/><polygon fill="#181818" points="1020.13,1542.33,1025.6544,1534.1764,1021.0117,1537.4084,1017.7798,1532.7657,1020.13,1542.33" style="stroke:#181818;stroke-width:1.0;"/></g><!--link Overdracht to Bemiddeling--><g id="link_Overdracht_Bemiddeling"><path codeLine="92" d="M1181.5,1687 C1245.95,1687 1217.05,1595.08 1180.5,1542 C1138.84,1481.5 1068.32,1542.39 1026.5,1482 C947.72,1368.25 982.1459,960.4631 1003.5959,767.8631 " fill="none" id="Overdracht-to-Bemiddeling" style="stroke:#181818;stroke-width:1.0;"/><polygon fill="#181818" points="1004.26,761.9,999.2884,770.402,1003.7066,766.8693,1007.2392,771.2874,1004.26,761.9" style="stroke:#181818;stroke-width:1.0;"/></g><!--link Bemiddelingspecificatie to Overdrachtspecificatie--><g id="link_Bemiddelingspecificatie_Overdrachtspecificatie"><path codeLine="68" d="M600.5,1236.5 C544.93,1236.5 590.4581,1280.816 649.3881,1325.476 " fill="none" id="Bemiddelingspecificatie-to-Overdrachtspecificatie" style="stroke:#181818;stroke-width:1.0;"/><polygon fill="#181818" points="654.17,1329.1,649.4131,1320.4761,650.1851,1326.08,644.5811,1326.852,654.17,1329.1" style="stroke:#181818;stroke-width:1.0;"/></g><!--link Overdrachtspecificatie to Bemiddelingspecificatie--><g id="link_Overdrachtspecificatie_Bemiddelingspecificatie"><path codeLine="104" d="M944.5,1458.5 C1002.06,1458.5 961.83,1383.56 943.5,1329 C935.65,1305.64 927.5415,1287.8601 914.6015,1266.0501 " fill="none" id="Overdrachtspecificatie-to-Bemiddelingspecificatie" style="stroke:#181818;stroke-width:1.0;"/><polygon fill="#181818" points="911.54,1260.89,912.6922,1270.6712,914.0913,1265.1901,919.5724,1266.5892,911.54,1260.89" style="stroke:#181818;stroke-width:1.0;"/></g><!--link Overdracht to Overdrachtspecificatie--><g id="link_Overdracht_Overdrachtspecificatie"><path codeLine="91" d="M827.5,1671 C749.19,1671 744.9173,1566.0954 752.0173,1487.9154 " fill="none" id="Overdracht-to-Overdrachtspecificatie" style="stroke:#181818;stroke-width:1.0;"/><polygon fill="#181818" points="752.56,1481.94,747.7624,1490.5413,752.1078,1486.9195,755.7296,1491.2649,752.56,1481.94" style="stroke:#181818;stroke-width:1.0;"/></g><!--link Overdrachtspecificatie to Overdracht--><g id="link_Overdrachtspecificatie_Overdracht"><path codeLine="103" d="M944.5,1442.5 C967.17,1442.5 981.4678,1487.8336 991.0078,1536.1536 " fill="none" id="Overdrachtspecificatie-to-Overdracht" style="stroke:#181818;stroke-width:1.0;"/><polygon fill="#181818" points="992.17,1542.04,994.351,1532.4357,991.2015,1537.1347,986.5025,1533.9852,992.17,1542.04" style="stroke:#181818;stroke-width:1.0;"/></g><!--link Contactpersoon to ContactpersoonContactgegevens--><g id="link_Contactpersoon_ContactpersoonContactgegevens"><path codeLine="131" d="M399.5,510 C438.39,510 411.86,823.48 398.5,860 C390.05,883.11 381.4594,900.4925 367.7294,921.7125 " fill="none" id="Contactpersoon-to-ContactpersoonContactgegevens" style="stroke:#181818;stroke-width:1.0;"/><polygon fill="#181818" points="364.47,926.75,372.7174,921.3667,367.1862,922.5521,366.0008,917.0208,364.47,926.75" style="stroke:#181818;stroke-width:1.0;"/></g><!--link ContactpersoonContactgegevens to Contactpersoon--><g id="link_ContactpersoonContactgegevens_Contactpersoon"><path codeLine="177" d="M357.5,983.5 C424.58,983.5 410.4403,931.0662 368.0503,864.7162 " fill="none" id="ContactpersoonContactgegevens-to-Contactpersoon" style="stroke:#181818;stroke-width:1.0;"/><polygon fill="#181818" points="364.82,859.66,366.2947,869.3978,367.5119,863.8735,373.0363,865.0907,364.82,859.66" style="stroke:#181818;stroke-width:1.0;"/></g><!--SRC=[xLSzRzmu4EttLsYxN14WbtABAs8dmHQ1dSJ10HUaeAMnbbcA54XgZNXn__s6b2NDK9GIkxWgtUwR3t9ctWn7fHBE5Hyxi3_Ecw8ebGJjNzmVmCAkk8Z_tadbmUvrs_a_TiNN7jn-swBwBJIoga19NGysRoOeCIIIcRLhePHtiXHUGiOJ5IzxfLhz2UO4jhAYF8mXNOr8ucSIzAOMQWa7qrLW1zjF4vGO4qcm_dUpYHdTxVfy5YzV_lMOp450OezI4aP6XKQMgbFPO4ek7zN9_GQLAJLHOmf_ioaZ9_hx5cTUg5mTIwEzA7qBrXcZ0qKOiFqswTHGmmcq6tbqmV5UDqhsbxlYovVzPMIAGxUVlGr7uby5S0UW3o2h0KRqq4adh7S4AatJTBhFpSdOXeYy46hyYmNhhxDUc4671znNbq6ZPZP8GeT4CkIU77fURfGrzdC6fnJbFccc-zmFhH-GU_MmrrNlbseYOOJszyROuENxyHzZwoCY28orAZ9weMfxNGkySILyXpMv51ws2vflfQw86kjfsisXX2GPp-iUvc2jXvZYJpjfuRYLoj8yAsH6IAQZ18wPVNXeBqm53FC6xkNtXr3LR8wbTXvKtybZBtJIdmoEE5qj5b4uFnX-C4saI71v8vleTZfsNZ3iYH8DH8qttUC4HAI-lPw1fjMY6OCf8e4hq2YqS3oI2mSH-4Oeq1IQ8di3-AjfU8pObjRVZDTaqR7vHiSRenjllQiidj2GcQoEbaMZ_Fa9qzWL7bb7-7hcqu2oQyw77irn1sQbZKwjKTHsEPcO6tAfzNmy1Z6561-YAHbFdKJC-78sTyBRaQ8_eVmICRxcov8EtNbk9hldL9rQFocnx83pOc3PaUGyvipnfvc9Bi9XKsx6RiJIkDOQVOm5WvkLyP6VzzkrPt7fLUHPNkgpT8elMJpdXHbsAxv0dFCB4bFABafCWrR8WWhdwQvfW3N1oQWwzCamTUDO_DHhKptIrCNaZq8rE1MJeeMWYzK9FU9hKZjGxnTKMbpJDDXbm-j5XV16w0HJu74PftkVDT0cnk5l3RUsaqU23a4mw3Ra13WB6Jhtywi3CrslmkB9j-VC9yDC8xTEhf65h_JfDZfzzoMIzRrGL1PSf0_bZVDM29_aFapNWOezxGBIboshXkj4O09_mLlZV4dsdG0fF2nbbnAQVXO8_Dl92l_yZPc9joPIQ8HKAOXJ7-vGkR_CgpyJvnauiNYTjtZzPCQC7oP9QN8qoSwMRB7ND5ZHam-xvBlkDmd-FnAibUmNFaZ_0m00]--></g></svg>