<svg xmlns="http://www.w3.org/2000/svg" xmlns:xlink="http://www.w3.org/1999/xlink" contentStyleType="text/css" height="350px" preserveAspectRatio="none" style="width:693px;height:350px;background:#FFFFFF;" version="1.1" viewBox="0 0 693 350" width="693px" zoomAndPan="magnify"><defs/><g><ellipse cx="371.7456" cy="20" fill="#222222" rx="10" ry="10" style="stroke:#222222;stroke-width:1.0;"/><polygon fill="#F1F1F1" points="251.7205,50,491.7708,50,503.7708,62,491.7708,74,251.7205,74,239.7205,62,251.7205,50" style="stroke:#181818;stroke-width:0.5;"/><text fill="#000000" font-family="sans-serif" font-size="11" lengthAdjust="spacing" textLength="240.0503" x="251.7205" y="65.8081">overdrachtID en overdrachtDatum bekend?</text><text fill="#000000" font-family="sans-serif" font-size="11" lengthAdjust="spacing" textLength="20.5068" x="219.2136" y="59.4058">nee</text><text fill="#000000" font-family="sans-serif" font-size="11" lengthAdjust="spacing" textLength="9.7969" x="503.7708" y="59.4058">ja</text><rect fill="#F1F1F1" height="47.9375" rx="12.5" ry="12.5" style="stroke:#181818;stroke-width:0.5;" width="205.0098" x="96.3418" y="84"/><text fill="#000000" font-family="sans-serif" font-size="12" lengthAdjust="spacing" textLength="130.166" x="106.3418" y="105.1387">Ontvangst notificatie:</text><text fill="#000000" font-family="sans-serif" font-size="12" lengthAdjust="spacing" textLength="185.0098" x="106.3418" y="119.1074">OVERDRACHT_ZORGKANTOOR</text><rect fill="#F1F1F1" height="47.9375" rx="12.5" ry="12.5" style="stroke:#181818;stroke-width:0.5;" width="375.6934" x="11" y="165.9063"/><text fill="#000000" font-family="sans-serif" font-size="12" lengthAdjust="spacing" textLength="351.8789" x="21" y="187.0449">Raadpleeg Overdracht, Overdrachtspecificatie(s) en Client</text><text fill="#000000" font-family="sans-serif" font-size="12" lengthAdjust="spacing" textLength="169.125" x="21" y="201.0137">met gegevens uit notificatie</text><rect fill="#90EE90" height="33.9688" rx="12.5" ry="12.5" style="stroke:#181818;stroke-width:0.5;" width="108.9102" x="144.3916" y="233.8438"/><text fill="#000000" font-family="sans-serif" font-size="12" lengthAdjust="spacing" text-decoration="underline" textLength="88.9102" x="154.3916" y="254.9824">QBR-0007-ZKn</text><rect fill="#F1F1F1" height="33.9688" rx="12.5" ry="12.5" style="stroke:#181818;stroke-width:0.5;" width="275.9023" x="406.6934" y="84"/><text fill="#000000" font-family="sans-serif" font-size="12" lengthAdjust="spacing" textLength="255.9023" x="416.6934" y="105.1387">Raadpleeg volledige Overdracht gegevens</text><rect fill="#90EE90" height="33.9688" rx="12.5" ry="12.5" style="stroke:#181818;stroke-width:0.5;" width="108.9102" x="490.1895" y="151.9375"/><text fill="#000000" font-family="sans-serif" font-size="12" lengthAdjust="spacing" text-decoration="underline" textLength="88.9102" x="500.1895" y="173.0762">QBR-0008-ZKn</text><polygon fill="#F1F1F1" points="371.7456,273.8125,383.7456,285.8125,371.7456,297.8125,359.7456,285.8125,371.7456,273.8125" style="stroke:#181818;stroke-width:0.5;"/><ellipse cx="371.7456" cy="328.8125" fill="none" rx="11" ry="11" style="stroke:#222222;stroke-width:1.0;"/><ellipse cx="371.7456" cy="328.8125" fill="#222222" rx="6" ry="6" style="stroke:#222222;stroke-width:1.0;"/><line style="stroke:#181818;stroke-width:1.0;" x1="198.8467" x2="198.8467" y1="131.9375" y2="165.9063"/><polygon fill="#181818" points="194.8467,155.9063,198.8467,165.9063,202.8467,155.9063,198.8467,159.9063" style="stroke:#181818;stroke-width:1.0;"/><line style="stroke:#181818;stroke-width:1.0;" x1="198.8467" x2="198.8467" y1="213.8438" y2="233.8438"/><polygon fill="#181818" points="194.8467,223.8438,198.8467,233.8438,202.8467,223.8438,198.8467,227.8438" style="stroke:#181818;stroke-width:1.0;"/><line style="stroke:#181818;stroke-width:1.0;" x1="544.6445" x2="544.6445" y1="117.9688" y2="151.9375"/><polygon fill="#181818" points="540.6445,141.9375,544.6445,151.9375,548.6445,141.9375,544.6445,145.9375" style="stroke:#181818;stroke-width:1.0;"/><line style="stroke:#181818;stroke-width:1.0;" x1="239.7205" x2="198.8467" y1="62" y2="62"/><line style="stroke:#181818;stroke-width:1.0;" x1="198.8467" x2="198.8467" y1="62" y2="84"/><polygon fill="#181818" points="194.8467,74,198.8467,84,202.8467,74,198.8467,78" style="stroke:#181818;stroke-width:1.0;"/><line style="stroke:#181818;stroke-width:1.0;" x1="503.7708" x2="544.6445" y1="62" y2="62"/><line style="stroke:#181818;stroke-width:1.0;" x1="544.6445" x2="544.6445" y1="62" y2="84"/><polygon fill="#181818" points="540.6445,74,544.6445,84,548.6445,74,544.6445,78" style="stroke:#181818;stroke-width:1.0;"/><line style="stroke:#181818;stroke-width:1.0;" x1="198.8467" x2="198.8467" y1="267.8125" y2="285.8125"/><line style="stroke:#181818;stroke-width:1.0;" x1="198.8467" x2="359.7456" y1="285.8125" y2="285.8125"/><polygon fill="#181818" points="349.7456,281.8125,359.7456,285.8125,349.7456,289.8125,353.7456,285.8125" style="stroke:#181818;stroke-width:1.0;"/><line style="stroke:#181818;stroke-width:1.0;" x1="544.6445" x2="544.6445" y1="185.9063" y2="285.8125"/><line style="stroke:#181818;stroke-width:1.0;" x1="544.6445" x2="383.7456" y1="285.8125" y2="285.8125"/><polygon fill="#181818" points="393.7456,281.8125,383.7456,285.8125,393.7456,289.8125,389.7456,285.8125" style="stroke:#181818;stroke-width:1.0;"/><line style="stroke:#181818;stroke-width:1.0;" x1="371.7456" x2="371.7456" y1="30" y2="50"/><polygon fill="#181818" points="367.7456,40,371.7456,50,375.7456,40,371.7456,44" style="stroke:#181818;stroke-width:1.0;"/><line style="stroke:#181818;stroke-width:1.0;" x1="371.7456" x2="371.7456" y1="297.8125" y2="317.8125"/><polygon fill="#181818" points="367.7456,307.8125,371.7456,317.8125,375.7456,307.8125,371.7456,311.8125" style="stroke:#181818;stroke-width:1.0;"/><!--SRC=[VP11IyD048Nl-oi6l2HW8RTAF4XjHANWub8yb49OavVDrkqaPAVv_KPBQ_NWROPvyxt7Ys87KSetb7GZXdgmLIlF1O7fPo-i7FRqZWzmVPUIjDCrOI1LH9Hhbj6oYqBSYMzyPSKZtx9-Up25MIoVrkL6cyVLucMjjRbLtq_6sheFW2Dzjhc-c6EFwiHAOlgLPnayM6ZBUmWvE8pWI0V_o_U8lmhUjU86WFEoVBqtiopBvhFDYilog428e6HdqxznnYu4rDxX8ipPxH_wpOa-2TJKaszKbAx_1000]--></g></svg>