<svg xmlns="http://www.w3.org/2000/svg" xmlns:xlink="http://www.w3.org/1999/xlink" contentStyleType="text/css" height="351px" preserveAspectRatio="none" style="width:962px;height:351px;background:#FFFFFF;" version="1.1" viewBox="0 0 962 351" width="962px" zoomAndPan="magnify"><defs/><g><ellipse cx="455.9167" cy="20" fill="#222222" rx="10" ry="10" style="stroke:#222222;stroke-width:1.0;"/><polygon fill="#F1F1F1" points="220.5098,50,691.3237,50,703.3237,62,691.3237,74,220.5098,74,208.5098,62,220.5098,50" style="stroke:#181818;stroke-width:0.5;"/><text fill="#000000" font-family="sans-serif" font-size="11" lengthAdjust="spacing" textLength="470.814" x="220.5098" y="65.8081">bemiddelingspecificatieID, toewijzingIngangsdatum en toewijzingEinddatum bekend?</text><text fill="#000000" font-family="sans-serif" font-size="11" lengthAdjust="spacing" textLength="20.5068" x="188.0029" y="59.4058">nee</text><text fill="#000000" font-family="sans-serif" font-size="11" lengthAdjust="spacing" textLength="9.7969" x="703.3237" y="59.4058">ja</text><rect fill="#F1F1F1" height="47.9375" rx="12.5" ry="12.5" style="stroke:#181818;stroke-width:0.5;" width="349.6426" x="23.6885" y="84"/><text fill="#000000" font-family="sans-serif" font-size="12" lengthAdjust="spacing" textLength="130.166" x="33.6885" y="105.1387">Ontvangst notificatie:</text><text fill="#000000" font-family="sans-serif" font-size="12" lengthAdjust="spacing" textLength="329.6426" x="33.6885" y="119.1074">NIEUWE_BEMIDDELINGSPECIFICATIE_ZORGAANBIEDER</text><rect fill="#F1F1F1" height="47.9375" rx="12.5" ry="12.5" style="stroke:#181818;stroke-width:0.5;" width="375.0195" x="11" y="151.9375"/><text fill="#000000" font-family="sans-serif" font-size="12" lengthAdjust="spacing" textLength="351.2051" x="21" y="173.0762">Raadpleeg Bemiddelingspecificatie, Bemiddeling en Client</text><text fill="#000000" font-family="sans-serif" font-size="12" lengthAdjust="spacing" textLength="169.125" x="21" y="187.0449">met gegevens uit notificatie</text><rect fill="#90EE90" height="33.9688" rx="12.5" ry="12.5" style="stroke:#181818;stroke-width:0.5;" width="101.6445" x="147.6875" y="234.875"/><text fill="#000000" font-family="sans-serif" font-size="12" lengthAdjust="spacing" text-decoration="underline" textLength="81.6445" x="157.6875" y="256.0137">QBR-0001-ZA</text><rect fill="#F1F1F1" height="47.9375" rx="12.5" ry="12.5" style="stroke:#181818;stroke-width:0.5;" width="384.7285" x="520.9595" y="84"/><text fill="#000000" font-family="sans-serif" font-size="12" lengthAdjust="spacing" textLength="203.6426" x="530.9595" y="105.1387">Raadpleeg aanvullende gegevens</text><text fill="#000000" font-family="sans-serif" font-size="12" lengthAdjust="spacing" textLength="364.7285" x="530.9595" y="119.1074">(Informatieve zorgtoewijzingen, DH, CZT, contactgegevens))</text><polygon fill="#F1F1F1" points="547.9585,151.9375,878.689,151.9375,890.689,164.7422,878.689,177.5469,547.9585,177.5469,535.9585,164.7422,547.9585,151.9375" style="stroke:#181818;stroke-width:0.5;"/><text fill="#000000" font-family="sans-serif" font-size="11" lengthAdjust="spacing" textLength="327.2339" x="547.9585" y="162.1479">toewijzingEinddatum eigen bemiddelingspecficatie gevuld?</text><text fill="#000000" font-family="sans-serif" font-size="11" lengthAdjust="spacing" textLength="102.5181" x="547.9585" y="174.9526">(zie QBR-0001-ZA)</text><text fill="#000000" font-family="sans-serif" font-size="11" lengthAdjust="spacing" textLength="9.7969" x="526.1616" y="162.1479">ja</text><text fill="#000000" font-family="sans-serif" font-size="11" lengthAdjust="spacing" textLength="20.5068" x="890.689" y="162.1479">nee</text><rect fill="#90EE90" height="33.9688" rx="12.5" ry="12.5" style="stroke:#181818;stroke-width:0.5;" width="101.6445" x="475.1362" y="187.5469"/><text fill="#000000" font-family="sans-serif" font-size="12" lengthAdjust="spacing" text-decoration="underline" textLength="81.6445" x="485.1362" y="208.6855">QBR-0002-ZA</text><rect fill="#90EE90" height="33.9688" rx="12.5" ry="12.5" style="stroke:#181818;stroke-width:0.5;" width="101.6445" x="849.8667" y="187.5469"/><text fill="#000000" font-family="sans-serif" font-size="12" lengthAdjust="spacing" text-decoration="underline" textLength="81.6445" x="859.8667" y="208.6855">QBR-0003-ZA</text><polygon fill="#F1F1F1" points="713.3237,227.5156,725.3237,239.5156,713.3237,251.5156,701.3237,239.5156,713.3237,227.5156" style="stroke:#181818;stroke-width:0.5;"/><polygon fill="#F1F1F1" points="455.9167,274.8438,467.9167,286.8438,455.9167,298.8438,443.9167,286.8438,455.9167,274.8438" style="stroke:#181818;stroke-width:0.5;"/><ellipse cx="455.9167" cy="329.8438" fill="none" rx="11" ry="11" style="stroke:#222222;stroke-width:1.0;"/><ellipse cx="455.9167" cy="329.8438" fill="#222222" rx="6" ry="6" style="stroke:#222222;stroke-width:1.0;"/><line style="stroke:#181818;stroke-width:1.0;" x1="198.5098" x2="198.5098" y1="131.9375" y2="151.9375"/><polygon fill="#181818" points="194.5098,141.9375,198.5098,151.9375,202.5098,141.9375,198.5098,145.9375" style="stroke:#181818;stroke-width:1.0;"/><line style="stroke:#181818;stroke-width:1.0;" x1="198.5098" x2="198.5098" y1="199.875" y2="234.875"/><polygon fill="#181818" points="194.5098,224.875,198.5098,234.875,202.5098,224.875,198.5098,228.875" style="stroke:#181818;stroke-width:1.0;"/><line style="stroke:#181818;stroke-width:1.0;" x1="535.9585" x2="525.9585" y1="164.7422" y2="164.7422"/><line style="stroke:#181818;stroke-width:1.0;" x1="525.9585" x2="525.9585" y1="164.7422" y2="187.5469"/><polygon fill="#181818" points="521.9585,177.5469,525.9585,187.5469,529.9585,177.5469,525.9585,181.5469" style="stroke:#181818;stroke-width:1.0;"/><line style="stroke:#181818;stroke-width:1.0;" x1="890.689" x2="900.689" y1="164.7422" y2="164.7422"/><line style="stroke:#181818;stroke-width:1.0;" x1="900.689" x2="900.689" y1="164.7422" y2="187.5469"/><polygon fill="#181818" points="896.689,177.5469,900.689,187.5469,904.689,177.5469,900.689,181.5469" style="stroke:#181818;stroke-width:1.0;"/><line style="stroke:#181818;stroke-width:1.0;" x1="525.9585" x2="525.9585" y1="221.5156" y2="239.5156"/><line style="stroke:#181818;stroke-width:1.0;" x1="525.9585" x2="701.3237" y1="239.5156" y2="239.5156"/><polygon fill="#181818" points="691.3237,235.5156,701.3237,239.5156,691.3237,243.5156,695.3237,239.5156" style="stroke:#181818;stroke-width:1.0;"/><line style="stroke:#181818;stroke-width:1.0;" x1="900.689" x2="900.689" y1="221.5156" y2="239.5156"/><line style="stroke:#181818;stroke-width:1.0;" x1="900.689" x2="725.3237" y1="239.5156" y2="239.5156"/><polygon fill="#181818" points="735.3237,235.5156,725.3237,239.5156,735.3237,243.5156,731.3237,239.5156" style="stroke:#181818;stroke-width:1.0;"/><line style="stroke:#181818;stroke-width:1.0;" x1="713.3237" x2="713.3237" y1="131.9375" y2="151.9375"/><polygon fill="#181818" points="709.3237,141.9375,713.3237,151.9375,717.3237,141.9375,713.3237,145.9375" style="stroke:#181818;stroke-width:1.0;"/><line style="stroke:#181818;stroke-width:1.0;" x1="208.5098" x2="198.5098" y1="62" y2="62"/><line style="stroke:#181818;stroke-width:1.0;" x1="198.5098" x2="198.5098" y1="62" y2="84"/><polygon fill="#181818" points="194.5098,74,198.5098,84,202.5098,74,198.5098,78" style="stroke:#181818;stroke-width:1.0;"/><line style="stroke:#181818;stroke-width:1.0;" x1="703.3237" x2="713.3237" y1="62" y2="62"/><line style="stroke:#181818;stroke-width:1.0;" x1="713.3237" x2="713.3237" y1="62" y2="84"/><polygon fill="#181818" points="709.3237,74,713.3237,84,717.3237,74,713.3237,78" style="stroke:#181818;stroke-width:1.0;"/><line style="stroke:#181818;stroke-width:1.0;" x1="198.5098" x2="198.5098" y1="268.8438" y2="286.8438"/><line style="stroke:#181818;stroke-width:1.0;" x1="198.5098" x2="443.9167" y1="286.8438" y2="286.8438"/><polygon fill="#181818" points="433.9167,282.8438,443.9167,286.8438,433.9167,290.8438,437.9167,286.8438" style="stroke:#181818;stroke-width:1.0;"/><line style="stroke:#181818;stroke-width:1.0;" x1="713.3237" x2="713.3237" y1="251.5156" y2="286.8438"/><line style="stroke:#181818;stroke-width:1.0;" x1="713.3237" x2="467.9167" y1="286.8438" y2="286.8438"/><polygon fill="#181818" points="477.9167,282.8438,467.9167,286.8438,477.9167,290.8438,473.9167,286.8438" style="stroke:#181818;stroke-width:1.0;"/><line style="stroke:#181818;stroke-width:1.0;" x1="455.9167" x2="455.9167" y1="30" y2="50"/><polygon fill="#181818" points="451.9167,40,455.9167,50,459.9167,40,455.9167,44" style="stroke:#181818;stroke-width:1.0;"/><line style="stroke:#181818;stroke-width:1.0;" x1="455.9167" x2="455.9167" y1="298.8438" y2="318.8438"/><polygon fill="#181818" points="451.9167,308.8438,455.9167,318.8438,459.9167,308.8438,455.9167,312.8438" style="stroke:#181818;stroke-width:1.0;"/><!--SRC=[TL71Re904Btp5PFq0WacjhtPWn7OsarQRQbD4sD2LXZMjJ0OM6dYrtSHiTJOlMnsPzwyz-PLMfJQibGAzXfpbIIOAPBL3cELgbXeXJnmGHVuhRO7K-4aXQadGkzpGEfLcAAa_LxZ5r8oTa1lJ8TDY8u50ACvwRe1Qw12T-D7Avfnzl798e-zy21WptmsVNzbFd_a_cJ1MRISXzF9PEPn5h3mmJgE2eL8TXcY1E-wQhTVQ8JwcKBIiA8SDKYKM2DLi5T_nBJJRp8bDrgMY3IAeZSl70o7mzl1SX95RGDc5OAz5Swb626etcUPSOzdZXNPdDAYp1k26k5GbF9tQqWk14yk-Ck52t51MiIwGpfEIzU4SstFg0mSBc8xEJ7qHaaoDeRjWtdsN3XTC8q1E9whZkzEZi-6ko3_0zpt09IerBBQgzB5xWS0]--></g></svg>